<?xml version="1.0" encoding="utf-8"?>
<!-- Generator: Adobe Illustrator 27.6.1, SVG Export Plug-In . SVG Version: 6.00 Build 0)  -->
<svg version="1.1" id="Layer_1" xmlns="http://www.w3.org/2000/svg" xmlns:xlink="http://www.w3.org/1999/xlink" x="0px" y="0px"
	 viewBox="0 0 558.5 556.1" style="enable-background:new 0 0 558.5 556.1;" xml:space="preserve">
<style type="text/css">
	.st0{fill:#EDE0CC;}
	.st1{fill:#FFF2DD;}
	.st2{fill:#BBB1A1;}
</style>
<g>
	<g>
		<path class="st0" d="M180.6,187.8c2.4,2.4,1.9,9.6,1.9,12.9c0,27.3-25.4,11-24.9,23c0.5,8.6,24.9,1.4,24.4,18.7
			c1.9,20.6-6.7,17.2-9.6,10.5c-3.8-8.6-25.9-12-24.4-27.3c0-3.4,0.5-4.8,2.9-8.6c-3.8,2.4-4.8,2.9-8.6,2.9
			c-15.3,1.4-18.7-21.1-27.3-24.9c-6.2-2.4-10.1-11.5,10.5-9.6c17.2,0,10.1,24.4,18.7,24.9c11.5,0.5-4.3-24.9,23-24.9
			C171,186.3,178.2,185.4,180.6,187.8L180.6,187.8z"/>
		<path class="st0" d="M2,187.8c-2.4,2.4-1.9,9.6-1.9,12.9c0,27.3,25.4,11,24.9,23c-0.5,8.6-24.9,1.4-24.4,18.7
			c-1.9,20.6,6.7,17.2,9.6,10.5c3.8-8.6,25.9-12,24.4-27.3c0-3.4-0.5-4.8-2.9-8.6c3.8,2.4,4.8,2.9,8.6,2.9
			c15.3,1.4,18.7-21.1,27.3-24.9c6.2-2.4,10.1-11.5-10.5-9.6c-17.2,0-10.1,24.4-18.7,24.9c-11.5,0.5,4.3-24.9-23-24.9
			C11.5,186.3,4.3,185.4,2,187.8L2,187.8z"/>
		<path class="st0" d="M2,368.3c-2.4-2.4-1.9-9.6-1.9-12.9c0-27.3,25.4-11,24.9-23C24.5,323.8,0,331,0.5,313.7
			c-1.9-20.6,6.7-17.2,9.6-10.5c3.8,8.6,25.9,12,24.4,27.3c0,3.4-0.5,4.8-2.9,8.6c3.8-2.4,4.8-2.9,8.6-2.9
			c15.3-1.4,18.7,21.1,27.3,24.9c6.2,2.4,10.1,11.5-10.5,9.6c-17.2,0-10.1-24.4-18.7-24.9c-11.5-0.5,4.3,24.9-23,24.9
			C11.5,370.2,4.3,370.7,2,368.3L2,368.3z"/>
		<path class="st0" d="M180.6,368.3c2.4-2.4,1.9-9.6,1.9-12.9c0-27.3-25.4-11-24.9-23c0.5-8.6,24.9-1.4,24.4-18.7
			c1.9-20.6-6.7-17.2-9.6-10.5c-3.8,8.6-25.9,12-24.4,27.3c0,3.4,0.5,4.8,2.9,8.6c-3.8-2.4-4.8-2.9-8.6-2.9
			c-15.3-1.4-18.7,21.1-27.3,24.9c-6.2,2.4-10.1,11.5,10.5,9.6c17.2,0,10.1-24.4,18.7-24.9c11.5-0.5-4.3,24.9,23,24.9
			C171,370.2,178.2,370.7,180.6,368.3L180.6,368.3z"/>
		<path class="st1" d="M91.5,190.2c-2.4,0-5.3,1.9-7.2,3.4L7.7,271.1c-1.4,1.4-3.4,4.8-3.4,7.2c0,2.4,1.9,5.3,3.4,7.2l76.6,77.6
			c1.9,1.4,4.8,3.4,7.2,3.4c2.4,0,5.3-1.9,7.2-3.4l76.6-77.6c1.4-1.4,3.4-4.8,3.4-7.2c0-2.4-1.9-5.3-3.4-7.2l-76.6-77.6
			C96.8,192.1,93.9,190.2,91.5,190.2z"/>
		<path class="st0" d="M91.5,226.1c1.4,0,2.4,0.5,3.8,1.4l13.9,13.9c4.3,4.8,4.8,11.5,1.4,17.7c5.7-3.4,12.9-2.9,17.2,1.4l13.9,13.9
			c1,1,1.4,2.4,1.4,3.8c0,1.4-0.5,2.9-1.4,3.8L127.9,296c-4.8,4.8-11.5,4.8-17.2,1.4c2.9,6.2,2.9,12.9-1.4,17.7l-13.9,13.9
			c-1,1-2.4,1.4-3.8,1.4s-2.4-0.5-3.8-1.4l-13.9-13.9c-4.3-4.8-4.8-11.5-1.4-17.7c-5.7,3.4-12.9,2.9-17.2-1.4l-13.9-13.9
			c-1-1-1.4-2.4-1.4-3.8c0-1.4,0.5-2.9,1.4-3.8l13.9-13.9c4.3-4.8,11.5-4.8,17.2-1.4c-2.9-6.2-2.9-12.9,1.4-17.7l13.9-13.9
			C88.6,226.6,90.1,226.1,91.5,226.1z"/>
		<path class="st2" d="M91.5,246.2c2.9,0,6.2,3.8,6.2,9.6c0,3.4-1.4,6.2-2.4,8.1l-1,1.4c-1.4,2.4-2.4,4.3-2.4,8.1
			c0,2.4,1.4,3.8,4.3,4.3c3.8,0,5.7-0.5,8.1-2.4l1.4-1c1.9-1.4,4.8-2.4,8.1-2.4c5.7,0,9.6,3.4,9.6,6.2c0,2.9-3.8,6.2-9.6,6.2
			c-3.4,0-6.2-1.4-8.1-2.4l-1.4-1c-2.4-1.4-4.3-2.4-8.1-2.4c-2.4,0-4.3,1.4-4.3,4.3c0,3.8,0.5,5.7,2.4,8.1l1,1.4
			c1,1.9,2.4,4.8,2.4,8.1c0,5.7-2.9,9.6-6.2,9.6s-5.7-3.8-5.7-9.6c0-3.4,1.4-6.2,2.4-8.1l1-1.4c1.4-2.4,2.4-4.3,2.4-8.1
			c0-2.4-1.4-3.8-4.3-4.3c-3.8,0-5.7,0.5-8.1,2.4l-1.4,1c-1.9,1.4-4.8,2.4-8.1,2.4c-5.7,0-9.6-3.4-9.6-6.2c0-2.9,3.8-6.2,9.6-6.2
			c3.4,0,6.2,1.4,8.1,2.4l1.4,1c2.4,1.4,4.3,2.4,8.1,2.4c2.4,0,4.3-1.4,4.3-4.3c0-3.8-0.5-5.7-2.4-8.1l-1-1.4
			c-1-1.9-2.4-4.8-2.4-8.1C85.3,250,88.6,246.2,91.5,246.2z"/>
	</g>
	<g>
		<path class="st0" d="M368.3,180.6c-2.4,2.4-9.6,1.9-12.9,1.9c-27.3,0-11-25.4-23-24.9c-8.6,0.5-1.4,24.9-18.7,24.4
			c-20.6,1.9-17.2-6.7-10.5-9.6c8.6-3.8,12-25.9,27.3-24.4c3.4,0,4.3,0.5,8.6,2.9c-2.4-3.8-2.9-4.8-2.9-8.6
			c-1.4-15.3,21.1-18.7,24.9-27.3c2.4-6.2,11.5-10.1,9.6,10.5c0.5,17.2-24.4,10.1-24.9,18.7c-0.5,11.5,24.9-4.3,24.9,23
			C370.2,171,370.7,178.2,368.3,180.6L368.3,180.6z"/>
		<path class="st0" d="M368.3,2c-2.4-2.4-9.6-1.9-12.9-1.9c-27.3,0-11,25.4-23,24.9C323.8,24.5,331,0,313.7,0.5
			c-20.6-1.9-17.2,6.7-10.5,9.6c8.6,3.8,12,25.9,27.3,24.4c3.4,0,4.3-0.5,8.6-2.9c-2.4,3.8-2.9,4.8-2.9,8.6
			c-1.4,15.3,21.1,18.7,24.9,27.3c2.4,6.2,11.5,10.1,9.6-10.5c0.5-17.2-24.4-10.1-24.9-18.7c-0.5-11.5,24.9,4.3,24.9-23
			C370.2,11.5,370.7,4.3,368.3,2L368.3,2z"/>
		<path class="st0" d="M187.8,2c2.4-2.4,9.6-1.9,12.9-1.9c27.3,0,11,25.4,23,24.9c8.6-0.5,1.4-24.9,18.7-24.4
			c20.6-1.9,17.2,6.7,10.5,9.6c-8.6,3.8-12,25.9-27.3,24.4c-3.4,0-4.8-0.5-8.6-2.9c2.4,3.8,2.9,4.8,2.9,8.6
			c1.4,15.3-21.1,18.7-24.9,27.3c-2.4,6.2-11.5,10.1-9.6-10.5c0-17.2,24.4-10.1,24.9-18.7c0.5-11.5-24.9,4.3-24.9-23
			C185.9,11.5,185.4,4.3,187.8,2L187.8,2z"/>
		<path class="st0" d="M187.8,180.6c2.4,2.4,9.6,1.9,12.9,1.9c27.3,0,11-25.4,23-24.9c8.6,0.5,1.4,24.9,18.7,24.4
			c20.6,1.9,17.2-6.7,10.5-9.6c-8.6-3.8-12-25.9-27.3-24.4c-3.4,0-4.8,0.5-8.6,2.9c2.4-3.8,2.9-4.8,2.9-8.6
			c1.4-15.3-21.1-18.7-24.9-27.3c-2.4-6.2-11.5-10.1-9.6,10.5c0,17.2,24.4,10.1,24.9,18.7c0.5,11.5-24.9-4.3-24.9,23
			C185.9,171,185.4,178.2,187.8,180.6L187.8,180.6z"/>
		<path class="st1" d="M365.9,91.5c0-2.4-1.9-5.3-3.4-7.2L285,7.7c-1.4-1.4-4.8-3.4-7.2-3.4c-2.4,0-5.3,1.9-7.2,3.4L193,84.3
			c-1.4,1.4-3.4,4.8-3.4,7.2c0,2.4,1.9,5.3,3.4,7.2l77.6,76.6c1.4,1.4,4.8,3.4,7.2,3.4c2.4,0,5.3-1.9,7.2-3.4l77.6-76.6
			C364,96.8,365.9,93.9,365.9,91.5z"/>
		<path class="st0" d="M330,91.5c0,1.4-0.5,2.4-1.4,3.8l-13.9,13.9c-4.8,4.3-11.5,4.8-17.7,1.4c3.4,5.7,2.9,12.9-1.4,17.7
			l-13.9,13.9c-1,1-2.4,1.4-3.8,1.4c-1.4,0-2.9-0.5-3.8-1.4l-13.9-13.9c-4.8-4.8-4.8-11.5-1.4-17.7c-6.2,3.4-12.9,2.9-17.7-1.4
			L227,95.3c-1-1-1.4-2.4-1.4-3.8s0.5-2.4,1.4-3.8l13.9-13.9c4.8-4.3,11.5-4.8,17.7-1.4c-3.4-5.7-2.9-12.9,1.4-17.7L274,40.7
			c1-1,2.4-1.4,3.8-1.4c1.4,0,2.9,0.5,3.8,1.4l13.9,13.9c4.8,4.8,4.8,11.5,1.4,17.7c6.2-3.4,12.9-2.9,17.7,1.4l13.9,13.9
			C329.5,88.6,330,90.1,330,91.5z"/>
		<path class="st2" d="M309.9,91.5c0,2.9-3.8,6.2-9.6,6.2c-3.4,0-6.2-1.4-8.1-2.4l-1.4-1c-2.4-1.4-4.3-2.4-8.1-2.4
			c-2.4,0-3.8,1.4-4.3,3.8c0,3.8,0.5,5.7,2.4,8.1l1,1.4c1.4,1.9,2.4,4.8,2.4,8.1c0,5.7-3.4,9.6-6.2,9.6c-2.9,0-6.2-3.8-6.2-9.6
			c0-3.4,1.4-6.2,2.4-8.1l1-1.4c1.4-2.4,2.4-4.3,2.4-8.1c0-2.4-1.4-4.3-4.3-3.8c-3.8,0-5.7,0.5-8.1,2.4l-1.4,1
			c-1.9,1-4.8,2.4-8.1,2.4c-5.7,0-9.6-3.4-9.6-6.2s3.8-5.7,9.6-5.7c3.4,0,6.2,1.4,8.1,2.4l1.4,1c2.4,1.4,4.3,2.4,8.1,2.4
			c2.4,0,3.8-1.4,4.3-3.8c0-3.8-0.5-5.7-2.4-8.1l-1-1.4c-1.4-1.9-2.4-4.8-2.4-8.1c0-5.7,3.4-9.6,6.2-9.6c2.9,0,6.2,3.8,6.2,9.6
			c0,3.4-1.4,6.2-2.4,8.1l-1,1.4c-1.4,2.4-2.4,4.3-2.4,8.1c0,2.4,1.4,4.3,4.3,3.8c3.8,0,5.7-0.5,8.1-2.4l1.4-1
			c1.9-1,4.8-2.4,8.1-2.4C306.1,85.3,309.9,88.6,309.9,91.5z"/>
	</g>
	<g>
		<path class="st0" d="M375.5,368.3c-2.4-2.4-1.9-9.6-1.9-12.9c0-27.3,25.4-11,24.9-23c-0.5-8.6-24.9-1.4-24.4-18.7
			c-1.9-20.6,6.7-17.2,9.6-10.5c3.8,8.6,25.9,12,24.4,27.3c0,3.4-0.5,4.8-2.9,8.6c3.8-2.4,4.8-2.9,8.6-2.9
			c15.3-1.4,18.7,21.1,27.3,24.9c6.2,2.4,10.1,11.5-10.5,9.6c-17.2,0-10.1-24.4-18.7-24.9c-11.5-0.5,4.3,24.9-23,24.9
			C385.1,370.2,377.9,370.7,375.5,368.3L375.5,368.3z"/>
		<path class="st0" d="M554.1,368.3c2.4-2.4,1.9-9.6,1.9-12.9c0-27.3-25.4-11-24.9-23c0.5-8.6,24.9-1.4,24.4-18.7
			c1.9-20.6-6.7-17.2-9.6-10.5c-3.8,8.6-25.9,12-24.4,27.3c0,3.4,0.5,4.8,2.9,8.6c-3.8-2.4-4.8-2.9-8.6-2.9
			c-15.3-1.4-18.7,21.1-27.3,24.9c-6.2,2.4-10.1,11.5,10.5,9.6c17.2,0,10.1-24.4,18.7-24.9c11.5-0.5-4.3,24.9,23,24.9
			C544.6,370.2,551.8,370.7,554.1,368.3L554.1,368.3z"/>
		<path class="st0" d="M554.1,187.8c2.4,2.4,1.9,9.6,1.9,12.9c0,27.3-25.4,11-24.9,23c0.5,8.6,24.9,1.4,24.4,18.7
			c1.9,20.6-6.7,17.2-9.6,10.5c-3.8-8.6-25.9-12-24.4-27.3c0-3.4,0.5-4.8,2.9-8.6c-3.8,2.4-4.8,2.9-8.6,2.9
			c-15.3,1.4-18.7-21.1-27.3-24.9c-6.2-2.4-10.1-11.5,10.5-9.6c17.2,0,10.1,24.4,18.7,24.9c11.5,0.5-4.3-24.9,23-24.9
			C544.6,185.9,551.8,185.4,554.1,187.8L554.1,187.8z"/>
		<path class="st0" d="M375.5,187.8c-2.4,2.4-1.9,9.6-1.9,12.9c0,27.3,25.4,11,24.9,23c-0.5,8.6-24.9,1.4-24.9,18.7
			c-1.9,20.6,6.7,17.2,9.6,10.5c3.8-8.6,25.9-12,24.4-27.3c0-3.4-0.5-4.8-2.9-8.6c3.8,2.4,4.8,2.9,8.6,2.9
			c15.3,1.4,18.7-21.1,27.3-24.9c6.2-2.4,10.1-11.5-10.5-9.6c-17.2,0-10.1,24.4-18.7,24.9c-11.5,0.5,4.3-24.9-23-24.9
			C385.1,185.9,377.9,185.4,375.5,187.8L375.5,187.8z"/>
		<path class="st1" d="M464.6,365.9c2.4,0,5.3-1.9,7.2-3.4l76.6-77.6c1.4-1.4,3.4-4.8,3.4-7.2c0-2.4-1.9-5.3-3.4-7.2L471.8,193
			c-1.4-1.4-4.8-3.4-7.2-3.4c-2.4,0-5.3,1.9-7.2,3.4l-76.6,77.6c-1.4,1.4-3.4,4.8-3.4,7.2c0,2.4,1.9,5.3,3.4,7.2l76.6,77.6
			C459.3,364,462.2,365.9,464.6,365.9z"/>
		<path class="st0" d="M464.6,330c-1.4,0-2.9-0.5-3.8-1.4l-13.9-13.9c-4.3-4.8-4.8-11.5-1.4-17.7c-5.7,3.4-12.9,2.9-17.7-1.4
			l-13.9-13.9c-1-1-1.4-2.4-1.4-3.8c0-1.4,0.5-2.9,1.4-3.8l13.9-13.9c4.3-4.8,11.5-4.8,17.7-1.4c-3.4-6.2-2.9-12.9,1.4-17.7
			l13.9-13.9c1-1,2.4-1.4,3.8-1.4s2.9,0.5,3.8,1.4l13.9,13.9c4.3,4.8,4.8,11.5,1.4,17.7c5.7-3.4,12.9-2.9,17.7,1.4l13.9,13.9
			c1,1,1.4,2.4,1.4,3.8c0,1.4-0.5,2.9-1.4,3.8l-13.9,13.9c-4.3,4.8-11.5,4.8-17.7,1.4c3.4,6.2,2.9,12.9-1.4,17.7l-13.9,13.9
			C467.5,329.5,466,330,464.6,330z"/>
		<path class="st2" d="M464.6,309.9c-2.9,0-6.2-3.8-6.2-9.6c0-3.4,1.4-6.2,2.4-8.1l1-1.4c1.4-2.4,2.4-4.3,2.4-8.1
			c0-2.4-1.4-3.8-3.8-4.3c-3.8,0-5.7,0.5-8.1,2.4l-1.4,1c-1.9,1.4-4.8,2.4-8.1,2.4c-5.7,0-9.6-3.4-9.6-6.2c0-2.9,3.8-6.2,9.6-6.2
			c3.4,0,6.2,1.4,8.1,2.4l1.4,1c2.4,1.4,4.3,2.4,8.1,2.4c2.4,0,4.3-1.4,3.8-4.3c0-3.8-0.5-5.7-2.4-8.1l-1-1.4
			c-1-1.9-2.4-4.8-2.4-8.1c0-5.7,3.4-9.6,6.2-9.6c2.9,0,5.7,3.8,5.7,9.6c0,3.4-1.4,6.2-2.4,8.1l-1,1.4c-1.4,2.4-1.9,4.3-1.9,8.1
			c0,2.4,1.4,3.8,3.8,4.3c3.8,0,5.7-0.5,8.1-2.4l1.4-1c1.9-1.4,4.8-2.4,8.1-2.4c5.7,0,9.6,3.4,9.6,6.2c0,2.9-3.8,6.2-9.6,6.2
			c-3.4,0-6.2-1.4-8.1-2.4l-1.4-1c-2.4-1.4-4.3-2.4-8.1-2.4c-2.4,0-4.3,1.4-3.8,4.3c0,3.8,0.5,5.7,1.9,8.1l1,1.4
			c1,1.9,2.4,4.8,2.4,8.1C470.8,306.1,467.5,309.9,464.6,309.9z"/>
	</g>
	<g>
		<path class="st0" d="M187.8,375.5c2.4-2.4,9.6-1.9,12.9-1.9c27.3,0,11,25.4,23,24.9c8.6-0.5,1.4-24.9,18.7-24.4
			c20.6-1.9,17.2,6.7,10.5,9.6c-8.6,3.8-12,25.9-27.3,24.4c-3.4,0-4.8-0.5-8.6-2.9c2.4,3.8,2.9,4.8,2.9,8.6
			c1.4,15.3-21.1,18.7-24.9,27.3c-2.4,6.2-11.5,10.1-9.6-10.5c0-17.2,24.4-10.1,24.9-18.7c0.5-11.5-24.9,4.3-24.9-23
			C186.3,385.1,185.4,377.9,187.8,375.5L187.8,375.5z"/>
		<path class="st0" d="M187.8,554.1c2.4,2.4,9.6,1.9,12.9,1.9c27.3,0,11-25.4,23-24.9c8.6,0.5,1.4,24.9,18.7,24.4
			c20.6,1.9,17.2-6.7,10.5-9.6c-8.6-3.8-12-25.9-27.3-24.4c-3.4,0-4.8,0.5-8.6,2.9c2.4-3.8,2.9-4.8,2.9-8.6
			c1.4-15.3-21.1-18.7-24.9-27.3c-2.4-6.2-11.5-10.1-9.6,10.5c0,17.2,24.4,10.1,24.9,18.7c0.5,11.5-24.9-4.3-24.9,23
			C186.3,544.6,185.4,551.8,187.8,554.1L187.8,554.1z"/>
		<path class="st0" d="M368.3,554.1c-2.4,2.4-9.6,1.9-12.9,1.9c-27.3,0-11-25.4-23-24.9c-8.6,0.5-1.4,24.9-18.7,24.4
			c-20.6,1.9-17.2-6.7-10.5-9.6c8.6-3.8,12-25.9,27.3-24.4c3.4,0,4.3,0.5,8.6,2.9c-2.4-3.8-2.9-4.8-2.9-8.6
			c-1.4-15.3,21.1-18.7,24.9-27.3c2.4-6.2,11.5-10.1,9.6,10.5c0.5,17.2-24.4,10.1-24.9,18.7c-0.5,11.5,24.9-4.3,24.9,23
			C370.2,544.6,370.7,551.8,368.3,554.1L368.3,554.1z"/>
		<path class="st0" d="M368.3,375.5c-2.4-2.4-9.6-1.9-12.9-1.9c-27.3,0-11,25.4-23,24.9c-8.6-0.5-1.4-24.9-18.7-24.4
			c-20.6-1.9-17.2,6.7-10.5,9.6c8.6,3.8,12,25.9,27.3,24.4c3.4,0,4.3-0.5,8.6-2.9c-2.4,3.8-2.9,4.8-2.9,8.6
			c-1.4,15.3,21.1,18.7,24.9,27.3c2.4,6.2,11.5,10.1,9.6-10.5c0.5-17.2-24.4-10.1-24.9-18.7c-0.5-11.5,24.9,4.3,24.9-23
			C370.2,385.1,370.7,377.9,368.3,375.5L368.3,375.5z"/>
		<path class="st1" d="M190.2,464.6c0,2.4,1.9,5.3,3.4,7.2l77.1,76.6c1.4,1.4,4.8,3.4,7.2,3.4s5.3-1.9,7.2-3.4l77.6-76.6
			c1.4-1.4,3.4-4.8,3.4-7.2c0-2.4-1.9-5.3-3.4-7.2L285,380.8c-1.4-1.4-4.8-3.4-7.2-3.4c-2.4,0-5.3,1.9-7.2,3.4L193,457.4
			C192.1,459.3,190.2,462.2,190.2,464.6z"/>
		<path class="st0" d="M226.1,464.6c0-1.4,0.5-2.4,1.4-3.8l13.9-13.9c4.8-4.3,11.5-4.8,17.7-1.4c-3.4-5.7-2.9-12.9,1.4-17.7
			l13.9-13.9c1-1,2.4-1.4,3.8-1.4c1.4,0,2.9,0.5,3.8,1.4l13.9,13.9c4.8,4.8,4.8,11.5,1.4,17.7c6.2-3.4,12.9-2.9,17.7,1.4l13.9,13.9
			c1,1,1.4,2.4,1.4,3.8s-0.5,2.4-1.4,3.8l-13.9,13.9c-4.8,4.3-11.5,4.8-17.7,1.4c3.4,5.7,2.9,12.9-1.4,17.7l-13.9,13.9
			c-1,1-2.4,1.4-3.8,1.4c-1.4,0-2.9-0.5-3.8-1.4l-13.9-13.9c-4.8-4.8-4.8-11.5-1.4-17.7c-6.2,3.4-12.9,2.9-17.7-1.4l-13.9-13.9
			C226.6,467.5,226.1,466,226.1,464.6z"/>
		<path class="st2" d="M246.2,464.6c0-2.9,3.8-6.2,9.6-6.2c3.4,0,6.2,1.4,8.1,2.4l1.4,1c2.4,1.4,4.3,2.4,8.1,2.4
			c2.4,0,3.8-1.4,4.3-3.8c0-3.8-0.5-5.7-2.4-8.1l-1-1.4c-1.4-1.9-2.4-4.8-2.4-8.1c0-5.7,3.4-9.6,6.2-9.6c2.9,0,6.2,3.8,6.2,9.6
			c0,3.4-1.4,6.2-2.4,8.1l-1,1.4c-1.4,2.4-2.4,4.3-2.4,8.1c0,2.4,1.4,4.3,4.3,3.8c3.8,0,5.7-0.5,8.1-2.4l1.4-1
			c1.9-1,4.8-2.4,8.1-2.4c5.7,0,9.6,3.4,9.6,6.2c0,2.9-3.8,5.7-9.6,5.7c-3.4,0-6.2-1.4-8.1-2.4l-1.4-1c-2.4-1.4-4.3-2.4-8.1-2.4
			c-2.4,0-3.8,1.4-4.3,3.8c0,3.8,0.5,5.7,2.4,8.1l1,1.4c1.4,1.9,2.4,4.8,2.4,8.1c0,5.7-3.4,9.6-6.2,9.6c-2.9,0-6.2-3.8-6.2-9.6
			c0-3.4,1.4-6.2,2.4-8.1l1-1.4c1.4-2.4,2.4-4.3,2.4-8.1c0-2.4-1.4-4.3-4.3-3.8c-3.8,0-5.7,0.5-8.1,2.4l-1.4,1
			c-1.9,1-4.8,2.4-8.1,2.4C250,470.8,246.2,467.5,246.2,464.6z"/>
	</g>
	<g>
		<path class="st0" d="M180.6,180.6L180.6,180.6L180.6,180.6l-1,0.5h-0.5h-0.5h-0.5c0,0-0.5,0-1,0l0,1h-1h-1h-1h-1.9
			c-0.5,0-1.4,0-1.9,0c-0.5,0-1,0-1.4,0s-1,0-1.4,0c-0.5,0-1,0-1.4,0s-1,0-1,0c-0.5,0-1,0-1,0c-0.5,0-1,0-1,0s-0.5,0-1,0h-1h-1h-1
			l-1-0.5l-0.5-0.5l-1-0.5l-0.5-0.5l-0.5-0.5l-0.5-0.5l-0.5-0.5l-0.5-0.5l-0.5-0.5l-0.5-0.5l-0.5,0l-0.5-0.5l-0.5-0.5l-0.5-0.5v-0.5
			v-0.5l-0.5-1l0-1.4v-1v-1c0-1,0-1.4,0-2.4c0-1,0-1.4,0-2.4s0-1.4,0-1.9c0-0.5,0-0.5,0-1s0-0.5,0-1v-0.5V161v-0.5V160v-0.5V159
			v-0.5l0,0h-0.5h-0.5h-0.5h-0.5H149h-0.5H148h-0.5h-0.5h-0.5h-0.5h-0.5h-0.5h-0.5h-0.5l0,0v0.5v0.5v0.5v0.5c0,0,0,0.5-0.5,1
			c-0.5,0.5,0,0.5-0.5,1c0,0.5,0,0.5-0.5,1v1c0,0.5-0.5,1.4-0.5,1.9c-0.5,1.4-0.5,2.9-1,4.3l-2.4,1l-0.5,1l-0.5,1l-0.5,1l-0.5,1
			l-0.5,1l0,1l-0.5,0.5l-0.5,0.5l-0.5,0.5l-0.5,0.5l-0.5,0.5v0.5l0,0l-0.5,0.5l-0.5,0.5l-0.5,0.5h-0.5h-0.5h-0.5h-0.5l-1.4,0.5h-0.5
			h-0.5h-1h-1c-0.5,0-1.4,0-1.9,0c-0.5,0-1,0-1.9,0c-0.5,0-1,0-1.4,0s-1,0-1.4,0s-1,0-1.4,0c-0.5,0-1,0-1,0c-0.5,0-1,0-1,0
			s-0.5,0-1,0s-0.5,0-1,0c-0.5,0-0.5,0-1-0.5c-0.5-0.5-0.5,0-0.5-0.5h-0.5h-0.5l0,0l0,0l0,0l0,0l0,0l0,0l0,0l0,0l0,0l0,0l0,0l0,0
			l0,0l0,0l0,0l0,0v-0.5v-0.5l0.5-0.5l0.5-0.5l0.5-0.5l0.5-0.5l0.5-0.5l0.5-0.5l0.5-0.5l0.5-0.5l0.5-0.5h0.5h0.5h0.5h0.5l0.5-0.5
			l0.5-0.5l0.5-0.5l0.5-1l0.5-1l0.5-1l0.5-1c0.5-0.5,1-1.4,1.4-1.9c0.5-1,1-1.4,1.4-2.4c1-1.4,1.9-2.9,2.9-4.3l1.4-2.4l1-1l1-1l1-1
			l1-1l1-1l1-1l1-0.5l0.5-0.5l0.5-0.5l0.5-0.5h0.5h0.5h0.5h0.5h0.5h0.5h0.5h0.5h0.5h0.5h0.5c0.5,0,1,0,1,0c0.5,0,0.5,0,1,0
			c0.5,0,0.5,0,1,0h0.5h0.5h0.5h0.5c0.5,0,0.5,0.5,1,0.5c0.5,0,0.5,0.5,1,0.5s1,0.5,1.4,1c-0.5-0.5-0.5-1-1-1.4c0-0.5-0.5-1-0.5-1
			c0-0.5-0.5-0.5-0.5-1v-0.5v-0.5V149v-0.5c0-0.5,0-0.5,0-1s0-0.5,0-1c0-0.5,0-1,0-1v-1v-1v-0.5v-0.5v-0.5v-0.5v-0.5v-0.5v-0.5v-0.5
			v-0.5l0.5-0.5l0.5-0.5l0.5-0.5l0.5-1l1-1l1-1l1-1l1-1l1-1l1-1l2.4-1.4c1.4-1,2.9-1.9,4.3-2.9c1-0.5,1.4-1,2.4-1.4
			c0.5-0.5,1.4-1,1.9-1.4l1-0.5l1-0.5l1-0.5l1-0.5l0.5-1l0.5-1l0.5-0.5v-0.5v-0.5v-0.5v-0.5l0.5-0.5l0.5-0.5l0.5-0.5l0.5-0.5
			l0.5-0.5l0.5-0.5l0.5-0.5l0.5-0.5l0.5-0.5h0.5h0.5l0,0l0,0l0,0l0,0l0,0l0,0l0,0l0,0l0,0l0,0l0,0l0,0l0,0l0,0l0,0l0,0v0.5v0.5
			c0,0,0,0.5,0.5,0.5c0.5,0,0,0.5,0.5,1c0.5,0.5,0,0.5,0,1c0,0.5,0,0.5,0,1s0,1,0,1c0,0.5,0,1,0,1s0,1,0,1.4c0,0.5,0,1,0,1.4
			c0,0.5,0,1,0,1.4c0,0.5,0,1,0,1.9c0,0.5,0,1,0,1.9v1v1v1v0.5v0.5v0.5v0.5v0.5v0.5l-0.5,0.5l-0.5,0.5l2.4-0.5l-0.5,0.5l-0.5,0.5
			l-0.5,0.5l-0.5,0.5l-0.5,0.5l-0.5,0.5l0-0.5l-0.5,0.5l-1,0.5l-1,0.5l-1,0.5h-1.4l-1,0.5l-1,0.5c-1.4,0.5-2.9,0.5-4.3,1
			c-1,0-1.4,0.5-1.9,0.5h-1c-0.5,0-0.5,0-1,0.5c-0.5,0-0.5,0-1,0.5c-0.5,0.5-0.5,0-1,0.5H160h-0.5H159h-0.5l0,0v0.5v0.5v0.5v0.5v0.5
			v0.5v0.5v0.5v0.5v0.5v0.5v0.5v0.5v0.5v0.5l0,0h0.5h0.5h0.5h0.5h0.5h0.5h0.5c0.5,0,0.5,0,1,0c0.5,0,0.5,0,1,0c0.5,0,1.4,0,1.9,0
			c1,0,1.4,0,2.4,0s1.4,0,2.4,0h1h1l1,0.5l1,0.5h0.5h0.5l0.5,0.5l0.5,0.5l1,1.9l0.5,0.5l0.5,0.5l0.5,0.5l0.5,0.5l0.5,0.5l0.5,0.5
			l0.5,0.5l0.5,0.5l0.5,1l0.5,1l0.5,1v1v1v1c0,0.5,0,0.5,0,1c0,0.5,0,1,0,1c0,0.5,0,1,0,1c0,0.5,0,1,0,1c0,0.5,0,1,0,1.4s0,1,0,1.4
			c0,0.5,0,1,0,1.4s0,1,0,1.9v1.9v1v1v1v1c0,0.5,0,0.5,0,1v0.5v0.5v0.5v0.5L180.6,180.6L180.6,180.6L180.6,180.6z"/>
		<path class="st0" d="M180.6,2L180.6,2L180.6,2l-1-0.5h-0.5h-0.5h-0.5c0,0-0.5,0-1,0h-1h-1h-1h-1h-1.9c-0.5,0-1.4,0-1.9,0
			c-0.5,0-1,0-1.4,0c-0.5,0-1,0-1.4,0s-1,0-1.4,0s-1,0-1,0c-0.5,0-1,0-1,0c-0.5,0-1,0-1,0s-0.5,0-1,0h-1h-1h-1l-1,0.5h0.5l-1,0.5
			l-0.5,0.5l-0.5,0.5l-0.5,0.5l-0.5,0.5l-0.5,0.5l-0.5,0.5l-0.5-0.5l-0.5,0.5l-0.5,0.5l-0.5,0.5l-0.5,0.5v0.5v0.5l-0.5,1l-0.5,1v1v1
			c0,1,0,1.4,0,2.4s0,1.4,0,2.4s0,1.4,0,1.9c0,0.5,0,0.5,0,1s0,0.5,0,1v0.5v0.5v0.5v0.5v0.5V23v0.5l0,0h-0.5h-0.5h-0.5H149h-0.5H148
			h-0.5h-0.5h-0.5h-0.5h-0.5h-0.5h-0.5h-0.5h-0.5l0,0V23v-0.5v-0.5v-0.5c0,0,0-0.5-0.5-1c-0.5-0.5,0-0.5-0.5-1c0-0.5,0-0.5-0.5-1v-1
			c0-0.5-0.5-1.4-0.5-1.9c-0.5-1.4-0.5-2.9-1-4.3l-1.9-0.5l-0.5-1l-0.5-1l-0.5-1l-0.5-1l-0.5-1l-0.5-0.5v-1l-0.5-0.5l-0.5-0.5
			l-0.5-0.5l-0.5-0.5v0V2.4L133.7,2l-0.5-0.5L132.7,1h-0.5h-0.5h-0.5h-0.5h-0.5h-0.5h-0.5h-1h-1c-0.5,0-1.4,0-1.9,0
			c-0.5,0-1,0-1.9,0c-0.5,0-1,0-1.4,0c-0.5,0-1,0-1.4,0c-0.5,0-1,0-1.4,0s-1,0-1,0c-0.5,0-1,0-1,0s-0.5,0-1,0s-0.5,0-1,0
			c-0.5,0-0.5,0-1,0.5S114,1.5,114,2h-0.5h-0.5l0,0l0,0l0,0l0,0l0,0l0,0l0,0l0,0l0,0l0,0l0,0l0,0l0,0l0,0l0,0l0,0v0.5v0.5l0.5,0.5
			l0.5,0.5l0.5,0.5l0.5,0.5l0.5,0.5l0.5,0.5l0.5,0.5l0.5,0.5l-1.4,2.9h0.5h0.5h0.5h0.5l0.5,0.5l0.5,0.5l0.5,0.5l0.5,1l0.5,1l1,1.4
			l0.5,1c0.5,0.5,1,1.4,1.4,1.9c0.5,1,1,1.4,1.4,1.9c1,1.4,1.9,2.9,2.9,4.3l1.4,2.4l1,1l1,1l0.5,1l1,1l1,1l1,1l1,0.5l0.5,0.5
			l0.5,0.5l0.5,0.5h0.5h0.5h0.5h0.5h0.5h0.5h0.5h0.5h0.5h0.5h0.5c0.5,0,1,0,1,0c0.5,0,0.5,0,1,0c0.5,0,0.5,0,1,0h0.5h0.5h0.5h0.5
			c0.5,0,0.5-0.5,1-0.5c0.5,0,0.5-0.5,1-0.5s1-0.5,1.4-1c-0.5,0.5-0.5,1-1,1.4c0,0.5-0.5,1-0.5,1c0,0.5-0.5,0.5-0.5,1v0.5V36v0.5
			v0.5c0,0.5,0,0.5,0,1c0,0.5,0,0.5,0,1c0,0.5,0,1,0,1v1v1v0.5v0.5l1,0.5v0.5v0.5v0.5v0.5v0.5V46l0.5,0.5l0.5,0.5l0.5,0.5l0.5,1l1,1
			l1,1l1,1l1,1l1,1l1,1l2.4,1.4c1.4,1,2.9,1.9,4.3,2.9c1,0.5,1.4,1,2.4,1.4c0.5,0.5,1.4,1,1.9,1.4l1,0.5l1,0.5l1,0.5l1,0.5l0.5,1
			l0.5,1l0.5,0.5v0.5v0.5v0.5v0.5l0.5,0.5l0.5,0.5l0.5,0.5l0.5,0.5l0.5,0.5l0.5,0.5l0.5,0.5l0.5,0.5l0.5,0.5h0.5h0.5l0,0l0,0l0,0
			l0,0l0,0l0,0l0,0l0,0l0,0l0,0l0,0l0,0l0,0l0,0l0,0l0,0v-0.5v-0.5c0,0,0-0.5,0.5-0.5l0.5-1c0-0.5,0-0.5,0-1c0-0.5,0-0.5,0-1
			c0-0.5,0-1,0-1c0-0.5,0-1,0-1s0-1,0-1.4c0-0.5,0-1,0-1.4c0-0.5,0-1,0-1.4c0-0.5,0-1,0-1.9c0-0.5,0-1,0-1.9v-1v-1v-1v-0.5v-0.5
			v-0.5v-0.5v-0.5v-0.5l-0.5-0.5l-0.5-0.5l-0.5-0.5l-0.5-0.5l2.9-1.9l-0.5-0.5l-0.5-0.5l-0.5-0.5l-0.5-0.5l-0.5,0l-0.5-0.5l-1-0.5
			l-1-0.5l-1-0.5l-1.4,0l-1-0.5l-1-0.5c-1.4-0.5-2.9-0.5-4.3-1c-1,0-1.4-0.5-1.9-0.5h-1c-0.5,0-0.5,0-1-0.5c-0.5,0-0.5,0-1-0.5
			c-0.5-0.5-0.5,0-1-0.5H160h-0.5H159h-0.5l0,0v-0.5v-0.5v-0.5v-0.5l-0.5,0v-0.5v-0.5v-0.5v-0.5V36v-0.5V35v-0.5V34v-0.5l0,0h0.5
			h0.5h0.5h0.5h0.5h0.5h0.5c0.5,0,0.5,0,1,0c0.5,0,0.5,0,1,0c0.5,0,1.4,0,1.9,0c1,0,1.4,0,2.4,0s1.4,0,2.4,0h1h1l1-0.5l1-0.5h0.5
			h0.5l0.5-0.5l0.5-0.5l1.4-2.4l0.5-0.5l0.5-0.5l0.5-0.5l0.5-0.5l0.5-0.5l0.5-0.5l0.5-0.5l0.5-0.5l0.5-1l-0.5-0.5l0.5-1v-1v-1v-1
			c0-0.5,0-0.5,0-1s0-1,0-1c0-0.5,0-1,0-1c0-0.5,0-1,0-1c0-0.5,0-1,0-1.4c0-0.5,0-1,0-1.4c0-0.5,0-1,0-1.4c0-0.5,0-1,0-1.9V8.2v-1
			v-1v-1v-1c0-0.5,0-0.5,0-1V2.9V2.4V2V1.5L180.6,2L180.6,2L180.6,2z"/>
		<path class="st0" d="M2,2L2,2l0.5-0.5h0.5h0.5h0.5h0.5c0,0,0.5,0,1,0h1h1h1h1h1.9c0.5,0,1.4,0,1.9,0s1,0,1.4,0
			C13.9,0,14.4,0,14.9,0s1,0,1.4,0s1,0,1,0c0.5,0,1,0,1,0c0.5,0,1,0,1,0c0.5,0,0.5,0,1,0h1h1h1l1,0.5l1,0.5l1,0.5L26.4,2l0.5,0.5
			l0.5,0.5l0.5,0.5l0.5,0.5l0.5,0.5l0,0.5l0.5,0.5l0.5,0.5l0.5,0.5l0.5,0.5l0.5,0.5l0.5,0.5l0.5,1l0.5,1l0.5,1v1c0,1,0,1.4,0.5,2.4
			s0,1.4,0,2.4s0,1.4,0,1.9c0,0.5,0,0.5,0,1s0,0.5,0,1v0.5v0.5v0.5v0.5v0.5V23l0.5,0.5h0.5H35h0.5H36h0.5h0.5h0.5h0.5h0.5h0.5h-0.5
			h0.5h0.5h0.5h0.5h0.5h0.5l0.5-0.5l0.5-0.5v-0.5v-0.5c0,0,0.5-0.5,0.5-1c0-0.5,0-0.5,0.5-1c0-0.5,0-0.5,0.5-1l-1.4,0.5
			c0-0.5,0.5-1.4,0.5-1.9c0-1.9,0.5-3.4,1-4.8l0.5-1l0.5-1l0.5-1l0.5-1l0.5-1l0.5-1L47,6.3l-0.5-1.4L47,4.3l0.5-0.5l0.5-0.5l0,0
			l0.5-0.5l0.5-0.5L49.4,2l0.5-0.5L50.3,1h0.5h0.5h0.5h0.5h0.5h0.5h0.5h1h1c0.5,0,1.4,0,1.9,0c0.5,0,1,0,1.9,0c0.5,0,1,0,1.4,0
			c0.5,0,1,0,1.4,0c0.5,0,1,0,1.4,0c0.5,0,1,0,1,0c0.5,0,1,0,1,0s0.5,0,1,0c0.5,0,0.5,0,1,0c0.5,0,0.5,0,1,0.5S69,1.5,69,2h0.5H70
			h0.5h0.5l0,0l0,0l0,0l0,0l0,0l0,0l0,0l0,0l0,0l0,0l0,0l0,0l0,0l0,0v0.5v0.5l-0.5,0.5L70,3.9l-0.5,0.5L69,4.8l-0.5,0.5L68,5.8
			l-0.5,0.5l-0.5,0.5l0.5,2.9h-0.5h-0.5h-0.5h-0.5l-0.5,0.5l-0.5,0.5l-0.5,0.5l-0.5,1l-1.4,1.4l-0.5,1l-0.5,1
			c-0.5,0.5-1,1.4-1.4,1.9c-0.5,1-1,1.4-1.4,1.9c-1,1.4-1.9,2.9-2.4,4.8l-1.4,2.4l-1,1l-1,0.5l-1,1l-1,1l-1,1l-1,1l-1,0.5l0,0.5h-1
			l-0.5,0.5H46l-0.5,0.5h-0.5h-0.5h-0.5l-1,0.5h-0.5h-1h-0.5h-1h-0.5c-0.5,0-1,0-1,0c-0.5,0-1,0-1,0c-0.5,0-0.5,0-1,0l-1-0.5h-0.5
			H35h-0.5c0-0.5-0.5-0.5-1-1c0,0-0.5-0.5-1-0.5s-1-0.5-1.4-1c0.5,0.5,0.5,1,1,1.4c0,0.5,0.5,1,0.5,1c0,0.5,0.5,0.5,0.5,1V35v0.5V36
			v0.5c0,0.5,0,0.5,0,1s0,0.5,0,1c0,0.5,0,1,0,1v1v1v0.5v0.5v0.5v0.5v0.5v0.5v0.5l0.5,1.4l-0.5,0.5L32.6,47v0.5l-0.5,0.5l-0.5,1
			l-1,1l-1,1l-1,1l-0.5,1l-1,1l-1,1l-2.4,1c-1.4,1-2.9,1.9-4.3,2.9c-0.5,0.5-1.4,1-1.9,1.4c-0.5,0.5-1.4,1-1.9,1.4l-1.4,0.5l-1,0.5
			l-1,0.5l-1,0.5l-0.5,1l-0.5,1l-0.5,0.5v0.5v0.5v0.5v0.5L9.6,68l-0.5,0.5L8.7,69l-0.5,0.5L7.7,70l-0.5,0.5l-0.5,0.5l-0.5,0.5
			l-0.5,0.5H5.3H4.8l0,0l0,0H4.3l0,0H3.9l0,0H3.4l0,0l0,0l0,0l0,0l0,0l0,0l0,0l0,0l0,0v-0.5v-0.5c0,0,0-0.5-0.5-0.5s0-0.5-0.5-1
			s0-0.5,0-1c0-0.5,0-0.5,0-1s0-1,0-1c0-0.5,0-1,0-1s0-1,0-1.4s0-1,0-1.4c0-0.5,0-1,0-1.4s0-1,0-1.9c0-1,0-1,0-1.9v-1v-1v-1v-0.5
			v-0.5v-0.5v-0.5l0.5-0.5l0.5-0.5l0.5-0.5l0.5-0.5l0.5-0.5l0.5-0.5l-1.9-1.9l0.5-0.5L4.3,47l0.5-0.5v0L5.3,46l0.5-0.5l1-0.5l1-0.5
			l1-0.5l1-0.5l1-0.5l1-0.5c2.4,0.5,3.8,0,5.3,0c1,0,1.4-0.5,1.9-0.5h1c0.5,0,0.5,0,1-0.5s0.5,0,1-0.5c0.5-0.5,0.5,0,1-0.5H23h0.5
			H24h0.5h0.5l-1-1.4v-0.5v-0.5v-0.5v-0.5v0.5v-0.5v-0.5v-0.5V36v-0.5V35v-0.5V34v0.5h-0.5H23v-1l0,0h-0.5h-0.5h-0.5h-0.5
			c-0.5,0-0.5,0-1,0s-0.5,0-1,0s-1.4,0-1.9,0c-1,0-1.4,0-2.4,0s-1.4,0-2.4,0h-1h-1l-1.4-2.4l-1-0.5H7.7H7.2l-0.5-0.5l-0.5-0.5
			l-0.5-0.5l-0.5-0.5l-0.5-0.5H4.3l-0.5-0.5l-0.5-1l-0.5-0.5l-0.5-0.5v-0.5l-0.5-1L1.5,24v-1v-1v-1v-1c0-0.5,0-0.5,0-1s0-1,0-1
			c0-0.5,0-1,0-1c0-0.5,0-1,0-1c0-0.5,0-1,0-1.4C0,14.4,0,13.9,0,13.4c0-0.5,0-1,0-1.4c0-0.5,0-1,0-1.9V8.2v-1v-1v-1v-1
			c0-0.5,0-0.5,0.5-1V2.9V2.4V2L2,2L2,2L2,2L2,2z"/>
		<path class="st0" d="M2,180.6L2,180.6l0.5,0.5h0.5h0.5h0.5h0.5c0,0,0.5,0,1,0h1h1h1h1h1.9c0.5,0,1.4,0,1.9,0s1,0,1.4,0
			c0.5,0,1,0,1.4,0c0.5,0,1,0,1.4,0c0.5,0,1,0,1,0c0.5,0,1,0,1,0c0.5,0,1,0,1,0c0.5,0,0.5,0,1,0h1h1h1l1-0.5l1-0.5l1-0.5l0.5-0.5
			l0.5-0.5l0.5-0.5l0.5-0.5l0.5-0.5l0.5-0.5l-1,1l0.5-0.5l0.5-0.5l0.5-0.5l0.5-0.5l0.5-0.5l0.5-0.5l0.5-1l-0.5-1.4l0.5-1v-1
			c0-1,0-1.4,0.5-2.4c0.5-1,0-1.4,0-2.4s0-1.4,0-1.9c0-0.5,0-0.5,0-1s0-0.5,0-1v-0.5V161v-0.5V160v-0.5V159l0.5-0.5h0.5H34h0.5H35
			h0.5H36h0.5h0.5h0.5h0.5h0.5h0.5h0.5h0.5h0.5h0.5h0.5l0.5,0.5l0.5,0.5v0.5v0.5c0,0,0.5,0.5,0.5,1c0,0.5,0,0.5,0.5,1
			c0,0.5,0,0.5,0.5,1l0.5,1c0,0.5,0.5,1.4,0.5,1.9c0.5,1.4,0.5,2.9,1,4.3l0.5,1l0.5,1l0.5,1l0.5,1l0.5,1l0.5,1l-2.4,1l0.5,0.5
			l0.5,0.5l0.5,0.5l0.5,0.5l0.5,0.5l0.5,0.5l0.5,0.5l0.5,0.5l0.5,0.5l0.5,0.5h0.5h0.5h0.5h0.5h0.5h0.5h0.5h1h1c0.5,0,1.4,0,1.9,0
			c0.5,0,1,0,1.9,0c0.5,0,1,0,1.4,0c0.5,0,1,0,1.4,0c0.5,0,1,0,1.4,0c0.5,0,1,0,1,0c0.5,0,1,0,1,0s0.5,0,1,0c0.5,0,0.5,0,1,0
			c0.5,0,0.5,0,1-0.5c0.5-0.5,0.5,0,0.5-0.5H70h0.5h0.5h0.5l0,0l0,0l0,0l0,0l0,0l0,0l0,0l0,0l0,0l0,0l0,0l0,0l0,0l0,0v-0.5v-0.5
			l-0.5-0.5l-0.5-0.5l-0.5-0.5l-0.5-0.5l-0.5-0.5l-0.5-0.5l-0.5-0.5l-0.5-0.5l-0.5-0.5h-0.5h-0.5h-0.5h-0.5l0-3.4l-0.5-0.5l-0.5-0.5
			l-0.5-1l-1.4-1l-0.5-1l-0.5-1c-0.5-0.5-1-1.4-1.4-1.9c-0.5-1-1-1.4-1.4-2.4c-1-1.4-1.9-2.9-2.9-4.3l-1.4-2.4l-1-1l-0.5-1l-1-1
			l-1-1l-1-1l-1-1l-1-0.5l0,0l-0.5-0.5l-0.5-0.5h-0.5H46h-0.5h-0.5h-0.5l-1.4-1h-0.5h-1h-0.5h-1h-0.5c-0.5,0-1,0-1,0c-0.5,0-1,0-1,0
			c-0.5,0-0.5,0-1,0h-0.5H36h-0.5H35c-0.5,0-0.5,0.5-1,0.5s-1,0.5-1,0.5c-0.5,0-1,0.5-1.4,1c0.5-0.5,0.5-1,1-1.4s0.5-1,0.5-1
			c0-0.5,0.5-0.5,0.5-1v-0.5v-0.5v-0.5v-0.5c0-0.5,0-0.5,0-1c0-0.5,0-0.5,0-1c0-0.5,0-1,0-1v-1v-1v-0.5v-0.5v-0.5v-0.5V138v-0.5V137
			v-0.5l-0.5-0.5l-0.5-0.5l-0.5-0.5l-0.5-0.5l-0.5-1l-1-1l-1-1l-1-1l-1-1l-0.5-0.5l-1-1L24,127c-1.4-1-2.9-1.9-4.3-2.9
			c-0.5-0.5-1.4-1-1.9-1.4c-0.5-0.5-1.4-1-1.9-1.4l-1.4,0l-1-0.5l-1-1l-1-0.5l-0.5-1l-0.5-1l-0.5-0.5v-0.5v-0.5v-0.5V115l-1,0
			l-0.5-0.5L8.2,114l-0.5-0.5l-0.5-0.5l-0.5-0.5l-0.5-0.5l-0.5-0.5l-0.5-0.5H4.8H4.3l0,0l0,0h0l0,0H3.9l0,0H3.4l0,0l0,0l0,0l0,0l0,0
			l0,0l0,0l0,0l0,0v0.5v0.5c0,0,0,0.5-0.5,0.5s0,0.5-0.5,1s0,0.5,0,1c0,0.5,0,0.5,0,1s0,1,0,1c0,0.5,0,1,0,1s0,1,0,1.4
			c0,0.5,0,1,0,1.4c0,0.5,0,1,0,1.4c0,0.5,0,1,0,1.9s0,1,0,1.9v1v1v1v0.5v0.5v0.5v0.5l0.5,0.5l0.5,0.5l0.5,0.5l0.5,0.5l-1.9,1.9
			l0.5,0.5l0.5,0.5l0.5,0.5l0.5,0.5l0.5,0.5h0l0.5,0.5l0.5,0.5l1,0.5l1,0.5l1,0.5l1,0.5l1.9-0.5l1,0.5c1.4,0.5,2.9,0.5,4.3,1
			c1,0,1.4,0.5,1.9,0.5h1c0.5,0,0.5,0,1,0.5s0.5,0,1,0.5c0.5,0.5,0.5,0,1,0.5H23h0.5H24h0.5h0.5l-1,1v0.5v0.5v0.5v0.5v0.5v0.5v0.5
			v0.5v0.5v0.5v0.5v0.5v0.5v-1h-0.5H23h-0.5h-0.5h-0.5h-0.5h-0.5h-0.5c-0.5,0-0.5,0-1,0s-0.5,0-1,0s-1.4,0-1.9,0c-1,0-1.4,0-2.4,0
			s-1.4,0-2.4,0h-1h-1l-1,0.5l-1,0.5H7.2H6.7l-0.5,0.5l-0.5,0.5l0,2.9l-0.5,0.5l-0.5,0.5l-0.5,0.5l-0.5,0.5l-0.5,0.5l-0.5,0.5
			l-0.5,0.5L2,157.1l0,1l-0.5,1L1,160v1v1v1c0,0.5,0,0.5,0,1c0,0.5,0,1,0,1c0,0.5,0,1,0,1c0,0.5,0,1,0,1c0,0.5,0,1,0,1.4
			c0,0.5,0,1,0,1.4s0,1,0,1.4s0,1,0,1.9v1.9v1v1v1v1c0,0.5,0,0.5,0.5,1v0.5v0.5v0.5L2,180.6L2,180.6L2,180.6L2,180.6z"/>
		<path class="st1" d="M178.2,91.5L178.2,91.5v-1v-0.5v-0.5v-0.5v-0.5l-1-1l-0.5-1l-0.5-1c0-0.5-0.5-0.5-0.5-1l-0.5-0.5L98.7,7.7
			l-0.5-0.5c0,0-0.5-0.5-1-0.5l-1.4-0.5l-1-0.5l-1-0.5h-0.5h-0.5h-0.5H92h-0.5H91h0h-0.5h-0.5h-0.5h-0.5h-0.5l-1,0.5l-1,0.5l-1,0.5
			c-0.5,0-0.5,0.5-1,0.5l-0.5,0.5L7.7,84.3l-0.5,0.5c0,0-0.5,0.5-0.5,1l-0.5,1l-0.5,1l-1,1v0.5v0.5v0.5v0.5V91v0.5V92v0.5v0.5v0.5
			v0.5v0.5l0.5,1l0.5,1l0.5,1c0,0.5,0.5,0.5,0.5,1l0.5,0.5l76.6,76.6l0.5,0.5c0,0,0.5,0.5,1,0.5l1,0.5l1,0.5l1,0.5h0.5h0.5h0.5h0.5
			h1h0.5H92h0.5h0.5h0.5h0.5h0.5l1-0.5l1-0.5l1-0.5c0.5,0,0.5-0.5,1-0.5l0.5-0.5l76.6-76.6l0.5-0.5c0,0,0.5-0.5,0.5-1l0.5-1l0.5-1
			l0.5-1v-0.5v-0.5v-0.5v-0.5L178.2,91.5L178.2,91.5z"/>
		<polygon class="st0" points="142.8,91.5 142.8,92 142.8,92.5 142.3,92.9 142.3,93.4 142.3,93.9 141.8,94.4 141.8,94.9 141.3,94.9 
			127.4,108.8 127,109.2 126.5,109.7 126,109.7 125.5,110.2 125,110.7 124.6,110.7 124.1,111.1 123.6,111.1 123.1,111.6 
			122.6,111.6 122.2,111.6 121.7,112.1 121.2,112.1 120.2,112.1 119.3,112.1 118.3,112.1 116.9,112.1 115.9,112.1 114.5,112.1 
			113.5,111.6 112.1,111.1 111.1,110.7 110.2,110.2 110.7,111.1 111.1,112.6 111.6,113.5 111.6,115 112.1,115.9 112.1,117.4 
			112.1,118.3 112.1,119.3 112.1,120.7 112.1,121.2 111.6,121.7 111.6,122.2 111.6,122.6 111.1,123.6 111.1,124.1 110.7,124.6 
			110.7,125 110.2,125.5 110.2,126 109.7,126.5 109.2,127 109.2,127.4 108.8,127.9 94.9,141.3 94.4,141.8 93.9,141.8 93.4,142.3 
			92.9,142.3 92.5,142.8 92,142.8 91.5,142.8 91,142.8 90.6,142.8 90.1,142.8 89.6,142.8 89.1,142.3 88.6,142.3 88.2,141.8 
			88.2,141.8 87.7,141.3 73.8,127.9 73.3,127.4 73.3,127 72.8,126.5 72.4,126 72.4,125.5 71.9,125 71.4,124.6 71.4,124.1 
			70.9,123.6 70.9,122.6 70.9,122.2 70.4,121.7 70.4,121.2 70.4,120.7 70.4,119.3 70.4,118.3 70.4,117.4 70.4,115.9 70.9,115 
			70.9,113.5 71.4,112.6 71.9,111.1 72.4,110.2 71.4,110.7 70,111.1 69,111.6 68,112.1 66.6,112.1 65.7,112.1 64.2,112.1 
			63.3,112.1 61.8,112.1 61.3,112.1 60.9,112.1 60.4,111.6 59.9,111.6 59.4,111.6 58.9,111.1 58.5,111.1 57.5,110.7 57,110.7 
			56.6,110.2 56.1,109.7 55.6,109.7 55.6,109.2 55.1,108.8 41.2,94.9 40.7,94.9 40.7,94.4 40.3,93.9 40.3,93.4 40.3,92.9 39.8,92.5 
			39.8,92 39.8,91.5 39.8,91 39.8,90.6 40.3,90.1 40.3,89.6 40.3,89.1 40.7,88.6 40.7,88.2 41.2,87.7 55.1,73.8 55.6,73.8 
			55.6,73.3 56.1,72.8 56.6,72.4 57,72.4 57.5,71.9 58.5,71.9 58.9,71.4 59.4,71.4 59.9,70.9 60.4,70.9 60.9,70.9 61.3,70.9 
			61.8,70.4 63.3,70.4 64.2,70.4 65.7,70.4 66.6,70.4 68,70.9 69,70.9 70,71.4 71.4,71.9 72.4,72.4 71.9,71.4 71.4,70.4 70.9,69 
			70.9,68 70.4,66.6 70.4,65.7 70.4,64.2 70.4,63.3 70.4,62.3 70.4,61.8 70.4,60.9 70.9,60.4 70.9,59.9 70.9,59.4 71.4,58.9 
			71.4,58.5 71.9,58 72.4,57.5 72.4,57 72.8,56.6 73.3,56.1 73.3,55.6 73.8,55.1 87.7,41.2 88.2,41.2 88.2,40.7 88.6,40.7 
			89.1,40.3 89.6,40.3 90.1,40.3 90.6,39.8 91,39.8 91.5,39.8 92,40.3 92.5,40.3 92.9,40.3 93.4,40.7 93.9,40.7 94.4,41.2 
			94.9,41.2 108.8,55.1 109.2,55.6 109.2,56.1 109.7,56.6 110.2,57 110.2,57.5 110.7,58 110.7,58.5 111.1,58.9 111.1,59.4 
			111.6,59.9 111.6,60.4 111.6,60.9 112.1,61.8 112.1,62.3 112.1,63.3 112.1,64.2 112.1,65.7 112.1,66.6 111.6,68 111.6,69 
			111.1,70.4 110.7,71.4 110.2,72.4 111.1,71.9 112.1,71.4 113.5,70.9 114.5,70.9 115.9,70.4 116.9,70.4 118.3,70.4 119.3,70.4 
			120.2,70.4 121.2,70.9 121.7,70.9 122.2,70.9 122.6,70.9 123.1,71.4 123.6,71.4 124.1,71.9 124.6,71.9 125,72.4 125.5,72.4 
			126,72.8 126.5,73.3 127,73.8 127.4,73.8 141.3,87.7 141.8,88.2 141.8,88.6 142.3,89.1 142.3,89.6 142.3,90.1 142.8,90.6 
			142.8,91 		"/>
		<path class="st2" d="M123.1,91.5L123.1,91.5V92v0.5v0.5v0.5v0.5v0.5v0.5l0,0l0,0l-0.5,0.5l-0.5,0.5l-0.5,0.5l-1.9-0.5l-0.5,0.5
			l-1,0.5l-1,0.5h-1h-1h-1h-1h-0.5h-0.5h-0.5h-0.5h-1l-1-0.5l-1-0.5c-0.5,0-0.5-0.5-1-0.5c-0.5,0-0.5-0.5-1-0.5c0,0-0.5-0.5-1-0.5
			l-1.4-1c-0.5,0-0.5-0.5-1-0.5l-1-0.5H102h-0.5h-0.5h-0.5c-0.5,0-0.5,0-1,0s-0.5,0-1,0c-0.5,0-1,0-1,0c-0.5,0-1,0-1.4,0h-0.5h-0.5
			h-0.5h-0.5h-0.5h-0.5h-0.5h-0.5v0.5v0.5v0.5v0.5v0.5v0.5v0.5v0.5c0,0.5,0,1,0,1.4c0,0.5,0,1,0,1v1c0,0.5,0,0.5,0,1v0.5v0.5v0.5
			v0.5l0.5,1c0,0.5,0.5,0.5,0.5,1l1,1.4c0,0,0.5,0.5,0.5,1c0,0.5,0.5,0.5,0.5,1s0.5,0.5,0.5,1l0.5,1l0.5,1v1v0.5v0.5v0.5v0.5v1v1v1
			v1l-0.5,1l-0.5,0.5v1l-0.5,0.5l-0.5,0.5l-0.5,0.5l-0.5,0.5l0,0l0,0h-0.5h-0.5h-0.5H92h-0.5H91h-0.5H91h-0.5h-0.5h-0.5h-0.5h-0.5
			h-0.5h-0.5h-0.5l0,0l0,0l-0.5-0.5l-0.5-0.5l-0.5-0.5l0.5-0.5v-1l-0.5-1l-0.5-1v-1v-1v-1v-1v-0.5v-0.5v-0.5v-0.5v-1l0.5-1l0.5-1
			c0-0.5,0.5-0.5,0.5-1c0-0.5,0.5-0.5,0.5-1c0,0,0.5-0.5,0.5-1l1-1.4c0-0.5,0.5-0.5,0.5-1l0.5-1V102v-0.5v-0.5v-0.5v-0.5v-0.5
			c0-0.5,0-1,0-1c0-0.5,0-1,0-1c0-0.5,0-1,0-1.4v-0.5v-0.5v-0.5v-0.5v-0.5v-0.5v-0.5v-0.5h-0.5h-0.5h-0.5h-0.5h-0.5h-0.5h-0.5h-0.5
			c-0.5,0-1,0-1.4,0s-1,0-1,0s-0.5,0-1,0c-0.5,0-0.5,0-1,0H81h-0.5H80h-0.5l-1,0.5c-0.5,0-0.5,0.5-1,0.5l-1.4,1c0,0-0.5,0.5-1,0.5
			c-0.5,0-0.5,0.5-1,0.5s-0.5,0.5-1,0.5l-1,0.5l-1,0.5h-1H70h-0.5H69h-0.5h-1h-1h-1h-1l-1-0.5l-1-0.5l-0.5,0l-0.5-0.5l-0.5-0.5
			l-0.5-0.5l-0.5-0.5l0,0l0,0v-0.5v-0.5v-0.5V92v-0.5V91v-0.5v-0.5v1l0,0v-0.5v-0.5v-0.5v-0.5v-0.5v-0.5l0,0l0,0l0.5-0.5l0.5-0.5
			l0.5-0.5l0.5-0.5l0.5-0.5l1-0.5l1-0.5h1h1h1h1H69h0.5H70h0.5h1l1,0.5l1,0.5c0.5,0,0.5,0.5,1,0.5c0.5,0,0.5,0.5,1,0.5
			c0.5,0,0.5,0.5,1,0.5l1.4,1c0.5,0,0.5,0.5,1,0.5l1,0.5H80h0.5H81h0.5c0.5,0,0.5,0,1,0s0.5,0,1,0c0.5,0,1,0,1,0c0.5,0,1,0,1.4,0
			h0.5h0.5h0.5h0.5h0.5h0.5h0.5h0.5v-0.5v-0.5v-0.5v-0.5v-0.5v-0.5v-0.5v-0.5c0-0.5,0-1,0-1.4s0-1,0-1v-1v-0.5V81v-0.5V80v-0.5v-0.5
			v-0.5v-0.5c0-0.5-0.5-0.5-0.5-1l-1-1.4c0,0-0.5-0.5-0.5-1c0-0.5-0.5-0.5-0.5-1s-1,1.4-1,1l-0.5-1l-0.5-1v-1v-0.5v-0.5v-0.5V70v-1
			v-1v-1v-1l0.5-1l0.5-1l0.5-1l0.5-0.5l0.5-0.5l0.5-0.5l0.5-0.5l0,0l0,0h0.5h0.5h0.5h0.5H91h0.5H92h-1h0.5H92h0.5h0.5h0.5h0.5h0.5
			h0.5l0,0l0,0l0.5,0.5l0.5,0.5l0.5,0.5l0.5,0.5l0.5,1l0.5,1l0.5,1v1v1v1v1v0.5v0.5v0.5v0.5v1l-0.5,1l-1.9,1c0,0.5-0.5,0.5-0.5,1
			c0,0.5-0.5,0.5-0.5,1c0,0-0.5,0.5-0.5,1l-1,1.4c0,0.5-0.5,0.5-0.5,1l-0.5,1v0.5v0.5v0.5v0.5c0,0.5,0,0.5,0,1s0,1,0,1
			c0,0.5,0,1,0,1c0,0.5,0,1,0,1.4v0.5v0.5v0.5v0.5v0.5v0.5v0.5V91h0.5h0.5h0.5h0.5h0.5h0.5h0.5h0.5c0.5,0,1,0,1.4,0c0.5,0,1,0,1,0
			s0.5,0,1,0c0.5,0,0.5,0,1,0h0.5h0.5h0.5h0.5l1-0.5c0.5,0,0.5-0.5,1-0.5l1.4-1c0,0,0.5-0.5,1-0.5c0.5,0,0.5-0.5,1-0.5
			s0.5-0.5,1-0.5l1-0.5l1-0.5h1h0.5h0.5h0.5h0.5h1h1h1h1l1,0.5l1,0.5l0.5,0.5l0.5,0.5l0.5,0.5l0.5,0.5l0.5,0.5l0,0l0,0v0.5V91v0.5
			V92v0.5V91L123.1,91.5L123.1,91.5L123.1,91.5z"/>
	</g>
	<g>
		<path class="st0" d="M375.5,180.6L375.5,180.6L375.5,180.6l-0.5-1v-0.5v-0.5v-0.5c0,0,0-0.5-0.5-1v-1v-1v-1v-1v-1.9
			c0-0.5,0-1.4,0-1.9s0-1,0-1.4c0-0.5,0-1,0-1.4s0-1,0-1.4s0-1,0-1c0-0.5,0-1,0-1c0-0.5,0-1,0-1c0-0.5,0-0.5,0-1v-1v-1l0.5-1l0.5-1
			l0.5-1l0.5-1l0.5-0.5l0.5-0.5l0.5-0.5l0.5-0.5l0.5-0.5l0.5-0.5l0.5-0.5l0.5-0.5l0.5-0.5l0.5-0.5l0.5-0.5h0.5h0.5l1-0.5l1-0.5h1h1
			c1,0,1.4,0,2.4,0c1,0,1.4,0,2.4,0s1.4,0,1.9,0s0.5,0,1,0s0.5,0,1,0h0.5h0.5h0.5h0.5h0.5h0.5h0.5h0.5l0.5-0.5v-0.5V148v-0.5v-0.5
			v-0.5v-0.5v-0.5v-0.5v-0.5v-0.5v-0.5v-0.5v-0.5l-0.5-0.5h-0.5H398h-0.5h-0.5h-0.5c-0.5,0-0.5,0-1-0.5c-0.5,0-0.5,0-1-0.5
			c-0.5,0-0.5,0-1-0.5h-1c-0.5,0-1.4-0.5-1.9-0.5c-1.4-0.5-2.9-0.5-4.3-1l-1.9-0.5l-1.4-0.5l-1-0.5l-1-0.5l-1-0.5l-1-0.5l-0.5-0.5
			h-0.5l-0.5-0.5l-0.5-0.5l-0.5-0.5l-0.5-0.5H376l-0.5-0.5l-0.5-0.5l-0.5-0.5l-0.5-0.5l-0.5-0.5l-0.5-0.5v-0.5v-0.5v-0.5v-0.5v-1v-1
			v-1c0-0.5,0-1.4,0-1.9s0-1,0-1.9c0-0.5,0-1,0-1.4c0-0.5,0-1,0-1.4c0-0.5,0-1,0-1.4c0-0.5,0-1,0-1c0-0.5,0-1,0-1s0-0.5,0-1
			c0-0.5,0-0.5,0.5-1c0-0.5,0-0.5,0.5-1c0.5-0.5,0-0.5,0.5-0.5v-0.5v-0.5l0,0l0,0l0,0l0,0l0,0l0,0l0,0l0,0l0,0h0.5h0.5h0.5h0.5h0.5
			h1.4h0.5h0.5h0.5l0.5,0.5l0.5,0.5l0.5,0.5l0.5,0.5l0.5,0.5l0.5,0.5l0.5,0.5l0.5,0.5l0.5,0.5l0.5,0.5v0.5l0.5,0.5l0.5,0.5l0.5,0.5
			l0.5,1l0.5,1l1,0.5l1,0.5l1,0.5l1,0.5c0.5,0.5,1.4,1,1.9,1.4c1,0.5,1.4,1,1.9,1.4c1.4,1,2.9,1.9,4.3,2.9l1.9,1.4l1,1l1,1l1,1l1,1
			l1,1l1,1l0.5,1l0.5,0.5l0.5,0.5l0.5,0.5l0.5,0.5l0.5,0.5v0.5v0.5v0.5v0.5v0.5v0.5v0.5v1v1c0,0.5,0,1,0,1c0,0.5,0,1,0,1
			c0,0.5,0,0.5,0,1v0.5v0.5v0.5v0.5c0,0.5-0.5,0.5-0.5,1c0,0.5-0.5,1-0.5,1c-0.5,0.5-0.5,1-1,1.4c0.5-0.5,1-0.5,1.4-1
			c0.5,0,1-0.5,1-0.5c0.5,0,0.5-0.5,1-0.5h0.5h0.5h0.5h0.5c0.5,0,0.5,0,1,0s0.5,0,1,0s1,0,1,0h1h1h0.5h0.5h0.5h0.5h0.5h0.5h0.5h0.5
			h0.5l0.5,0.5l0.5,0.5l0.5,0.5l1,0.5l1,1l1,1l1,1l1,1l1,1l1,1l1.4,2.4c1,1.4,1.9,2.9,2.9,4.3c0.5,1,1,1.4,1.4,2.4
			c0.5,0.5,1,1.4,1.4,1.9l0.5,1l0.5,1l0.5,1l0.5,1l1,0.5l1,0.5l0.5,0.5h0.5h0.5h0.5h0.5l0.5,0.5l0.5,0.5l0.5,0.5l0.5,0.5l0.5,0.5
			l0.5,0.5l0.5,0.5l0.5,0.5l0.5,0.5v0.5v0.5l0,0l0,0l0,0l0,0l0,0l0,0l0,0l0,0l0,0l0,0l0,0l0,0l0,0l0,0h-0.5h-0.5h-0.5h-0.5
			c0,0-0.5,0-0.5,0.5s-0.5,0-1,0.5c-0.5,0-0.5,0-1,0s-0.5,0-1,0s-1,0-1,0c-0.5,0-1,0-1,0s-1,0-1.4,0c-0.5,0-1,0-1.4,0
			c-0.5,0-1,0-1.4,0c-0.5,0-1,0-1.9,0c-0.5,0-1,0-1.9,0h-1h-1h-1l-3.4,1.4h-0.5h-0.5h-0.5h-0.5h-0.5l-0.5-0.5l-0.5-0.5l-0.5-0.5
			l-1-0.5l-0.5-0.5l-0.5-0.5l-0.5-0.5l-0.5-0.5l-0.5-0.5l0.5-0.5l-0.5-0.5l-0.5-1l-0.5-1l-0.5-1l0-1.4l-0.5-1l-0.5-1
			c-0.5-1.4-0.5-2.9-1-4.3c0-1-0.5-1.4-0.5-1.9l0-1.4c0-0.5,0-0.5-0.5-1s0-0.5-0.5-1s-0.5-0.5-0.5-1v-0.5V159l-0.5-0.5l-0.5-0.5
			h-0.5h-0.5h-0.5h-0.5l1,0l0,0h-0.5h-0.5h-0.5H410h-0.5H409h-0.5h-0.5h-0.5h-0.5h-0.5l0.5,1.4v0.5v0.5v0.5v0.5v0.5v0.5
			c0,0.5,0,0.5,0,1c0,0.5,0,0.5,0,1c0,0.5,0,1.4,0,1.9s0,1.4,0,2.4s0,1.4-0.5,2.4v1l-1.9,0.5l-0.5,1l-0.5,1l-0.5,0.5l-0.5,0.5
			l-0.5,0.5l-0.5,0.5l1,1l-0.5,0.5l-0.5,0.5l-0.5,0.5l-0.5,0.5l-0.5,0.5l-0.5,0.5l-0.5,0.5l-0.5,0.5l-1,0.5l-1,0.5l-1,0.5h-1h-1h-1
			c-0.5,0-0.5,0-1,0s-1,0-1,0c-0.5,0-1,0-1,0c-0.5,0-1,0-1,0c-0.5,0-1,0-1.4,0c-0.5,0-1,0-1.4,0c-0.5,0-1,0-1.4,0c-0.5,0-1,0-1.9,0
			h-1.9h-1h-1h-1h-1c-0.5,0-0.5,0-1,0H376h-0.5H375L375.5,180.6L375.5,180.6L375.5,180.6L375.5,180.6z"/>
		<path class="st0" d="M554.1,180.6L554.1,180.6L554.1,180.6l0.5-1v-0.5v-0.5v-0.5c0,0,0-0.5,0.5-1v-1v-1v-1v-1v-1.9
			c0-0.5,0-1.4,0-1.9s0-1,0-1.4c0-0.5,0-1,0-1.4s0-1,0-1.4s0-1,0-1c0-0.5,0-1,0-1c0-0.5,0-1,0-1c0-0.5,0-0.5,0-1v-1l-0.5-1l-0.5-1
			l-0.5-1l-0.5-1l-0.5-1l-0.5-0.5l-0.5-0.5l-0.5-0.5l-0.5-0.5l-0.5-0.5l-0.5-0.5l-0.5-0.5l1.4,1l-0.5-0.5l-0.5-0.5l-0.5-0.5h-0.5
			h-0.5l-1-0.5l-1-0.5h-1h-1c-1,0-1.4,0-2.4,0s-1.4,0-2.4,0s-1.4,0-1.9,0s-0.5,0-1,0c-0.5,0-0.5,0-1,0h-0.5H535h-0.5H534h-0.5h-0.5
			h-0.5h-0.5l-0.5-0.5v-0.5v-0.5V149v-0.5V148v-0.5v-0.5v-0.5v-0.5v-0.5v-0.5v-0.5v-0.5l0.5-0.5h0.5h0.5h0.5h0.5h0.5
			c0.5,0,0.5,0,1-0.5c0.5,0,0.5,0,1-0.5c0.5,0,0.5,0,1-0.5h1c0.5,0,1.4-0.5,1.9-0.5c1.4-0.5,2.9-0.5,4.3-1l1-0.5l1-0.5l1-0.5l1-0.5
			l1-0.5l1-0.5l0.5-0.5l0.5-0.5l0.5-0.5l0.5-0.5l0.5-0.5l0.5-0.5l0.5-0.5l0.5-0.5l0.5-0.5l0.5-0.5l0.5-0.5l0.5-0.5l0.5-0.5v-0.5
			v-0.5v-0.5v-0.5v-1v-1v-1c0-0.5,0-1.4,0-1.9s0-1,0-1.9c0-0.5,0-1,0-1.4c0-0.5,0-1,0-1.4c0-0.5,0-1,0-1.4c0-0.5,0-1,0-1
			c0-0.5,0-1,0-1s0-0.5,0-1c0-0.5,0-0.5-0.5-1c0-0.5,0-0.5-0.5-1c-0.5-0.5,0-0.5-0.5-0.5v-0.5v-0.5l0,0l0,0l0,0l0,0l0,0l0,0l0,0l0,0
			l0,0h-0.5h-0.5h-0.5h-0.5h-0.5h-0.5h-0.5h-0.5h-0.5l-0.5,0.5l-0.5,0.5l-0.5,0.5l-0.5,0.5l-0.5,0.5l-0.5,0.5l-0.5,0.5l-0.5,0.5
			l-0.5,0.5l-0.5,0.5v0.5l-0.5,0.5l-0.5,0.5l-0.5,0.5l-0.5,1l-0.5,1l-1,0.5l-1,0.5l-1,0.5l-1,0.5c-0.5,0.5-1.4,1-1.9,1.4
			c-1,0.5-1.4,1-1.9,1.4c-1.4,1-2.9,1.9-4.3,2.9l-1.9,1.4l-1,1l-1,1l-1,1l-1,1l-1,1l-1,1l-0.5,1l-0.5,0.5l-0.5,0.5l-0.5,0.5
			l-0.5,0.5l-0.5,0.5v0.5v0.5v0.5v0.5v0.5v0.5v0.5v1v1c0,0.5,0,1,0,1c0,0.5,0,1,0,1c0,0.5,0,0.5,0,1v0.5v0.5v0.5v0.5
			c0,0.5,0.5,0.5,0.5,1s0.5,1,0.5,1c0.5,0.5,0.5,1,1,1.4c-0.5-0.5-1-0.5-1.4-1c-0.5,0-1-0.5-1-0.5c-0.5,0-0.5-0.5-1-0.5h-0.5h-0.5
			h-0.5h-0.5c-0.5,0-0.5,0-1,0c-0.5,0-0.5,0-1,0c-0.5,0-1,0-1,0h-1h-1h-0.5H512h-0.5H511h-0.5h-0.5h-0.5h-0.5h-0.5l-0.5,0.5
			l-0.5,0.5l-0.5,0.5l-1,0.5l-1,1l-1,1l-1,1l-1,1l-1,1l-1,1l-1.4,2.4c-1,1.4-1.9,2.9-2.9,4.3c-0.5,1-1,1.4-1.4,2.4
			c-0.5,0.5-1,1.4-1.4,1.9l-0.5,1l-0.5,1l-0.5,1l-0.5,1l-1,0.5l-1,0.5l-0.5,0.5h-0.5h-0.5h-0.5h-0.5l-0.5,0.5l-0.5,0.5l-0.5,0.5
			l-0.5,0.5l-0.5,0.5l-0.5,0.5l-0.5,0.5l-0.5,0.5l-0.5,0.5v0.5v0.5l0,0l0,0l0,0l0,0l0,0l0,0l0,0l0,0l0,0l0,0l0,0l0,0l0,0l0,0h0.5
			h0.5h0.5h0.5c0,0,0.5,0,0.5,0.5s0.5,0,1,0.5c0.5,0,0.5,0,1,0s0.5,0,1,0s1,0,1,0c0.5,0,1,0,1,0s1,0,1.4,0c0.5,0,1,0,1.4,0
			c0.5,0,1,0,1.4,0c0.5,0,1,0,1.9,0s1,0,1.9,0h1h1h1h0.5h0.5h0.5h0.5h0.5h0.5l0.5-0.5l0.5-0.5l0.5-0.5l0.5-0.5l0.5-0.5l0.5-0.5
			l0.5-0.5l0.5-0.5l0.5-0.5l0.5-0.5l0.5-0.5l0.5-1l0.5-1l0.5-1l0.5-1l0.5-1l0.5-1c0.5-1.4,0.5-2.9,1-4.3c0-1,0.5-1.4,0.5-1.9l0.5-1
			c0-0.5,0-0.5,0.5-1s0-0.5,0.5-1c0.5-0.5,0.5-0.5,0.5-1v-0.5V159l0.5-0.5l0.5-0.5h0.5h0.5h0.5h0.5h0.5h0.5h0.5h0.5h0.5h0.5h0.5h0.5
			h0.5h0.5h0.5h0.5h0.5l0.5,0.5v0.5v0.5v0.5v0.5v0.5v0.5c0,0.5,0,0.5,0,1c0,0.5,0,0.5,0,1c0,0.5,0,1.4,0,1.9s0,1.4,0,2.4
			s0,1.4,0.5,2.4v1l0.5,1l0.5,1l0.5,1l0.5,0.5l0.5,0.5l0.5,0.5l0.5,0.5l-1.9,1.4l0.5,0.5l0.5,0.5l0.5,0.5l0.5,0.5l0.5,0.5l0.5,0.5
			l0.5,0.5l0.5,0.5l1,0.5l1,0.5l1,0.5h1h1h1c0.5,0,0.5,0,1,0c0.5,0,1,0,1,0c0.5,0,1,0,1,0c0.5,0,1,0,1,0c0.5,0,1,0,1.4,0
			c0.5,0,1,0,1.4,0c0.5,0,1,0,1.4,0c0.5,0,1,0,1.9,0h1.9h1h1h1h1c0.5,0,0.5,0,1,0h0.5h0.5h0.5L554.1,180.6L554.1,180.6L554.1,180.6
			L554.1,180.6z"/>
		<path class="st0" d="M554.1,2L554.1,2l0.5,0.5v0.5v0.5v0.5v0.5c0,0,0,0.5,0.5,1v1v1v1v1v1.9c0,0.5,0,1.4,0,1.9c0,0.5,0,1,0,1.4
			c0,0.5,0,1,0,1.4c0,0.5,0,1,0,1.4c0,0.5,0,1,0,1c0,0.5,0,1,0,1c0,0.5,0,1,0,1c0,0.5,0,0.5,0,1v1l-0.5,1l-0.5,1l-0.5,1l-0.5,1
			l-0.5,1l-0.5,0.5l-0.5,0.5l-0.5,0.5l-0.5,0.5l-0.5,0.5l-0.5,0.5l1.4-1l-0.5,0.5l-0.5,0.5l-0.5,0.5l-0.5,0.5h-0.5h-0.5l-1,0.5
			l-1.4,0.5h-1h-1c-1,0-1.4,0-2.4,0c-1,0-1.4,0-2.4,0s-1.4,0-1.9,0c-0.5,0-0.5,0-1,0c-0.5,0-0.5,0-1,0H535h-0.5H534h-0.5h-0.5h-0.5
			h-0.5h-0.5l-0.5,0.5v0.5v0.5v0.5V34v0.5V35v0.5V36v2.4v0.5v0.5v0.5v0.5l0.5,0.5h0.5h0.5h0.5h0.5h0.5c0.5,0,0.5,0,1,0.5
			c0.5,0,0.5,0,1,0.5c0.5,0,0.5,0,1,0.5h1c0.5,0,1.4,0.5,1.9,0.5c1.4,0.5,2.9,0.5,4.3,1l1,0.5l1,0.5l1,0.5l1,0.5l1,0.5l1,0.5
			l0.5,0.5l0.5,0.5l0.5,0.5l0.5,0.5l0.5,0.5l0.5,0.5l0.5,0.5l0.5,0.5l0.5,0.5l0.5,0.5l0.5,0.5l0.5,0.5l0.5,0.5v0.5v0.5v0.5v0.5v1v1
			v1c0,0.5,0,1.4,0,1.9s0,1,0,1.9c0,0.5,0,1,0,1.4c0,0.5,0,1,0,1.4c0,0.5,0,1,0,1.4s0,1,0,1c0,0.5,0,1,0,1s0,0.5,0,1
			c0,0.5,0,0.5-0.5,1c0,0.5,0,0.5-0.5,1c-0.5,0.5,0,0.5-0.5,0.5v0.5v0.5l0,0l0,0l0,0l0,0l0,0l0,0l0,0l0,0l0,0h-0.5h-0.5h-0.5h-0.5
			h-0.5h-0.5h-0.5h-0.5h-0.5l-0.5-0.5l-0.5-0.5l-0.5-0.5l-0.5-0.5l-0.5-0.5l-0.5-0.5l-0.5-0.5l-0.5-0.5l-0.5-0.5l-0.5-0.5v-0.5
			l-0.5-0.5l-0.5-0.5l-0.5-0.5l-0.5-1l-0.5-1l-1-0.5l-1-0.5l-1-0.5l-1-0.5c-0.5-0.5-1.4-1-1.9-1.4c-1-0.5-1.4-1-1.9-1.4
			c-1.4-1-2.9-1.9-4.3-2.9l-1.9-1.4l-1-1l-1-1l-1-1l-1-1l-1-1l-1-1l-0.5-1l-0.5-0.5l-0.5-0.5l-0.5-0.5l-0.5-0.5l-0.5-0.5v-0.5v-0.5
			v-0.5v-0.5v-0.5v-1v-0.5v-1v-0.5c0-0.5,0-1,0-1c0-0.5,0-1,0-1c0-0.5,0-0.5,0-1v-0.5V36v-0.5V35c0-0.5,0.5-0.5,0.5-1
			c0-0.5,0.5-1,0.5-1c0.5-0.5,0.5-1,1-1.4c-0.5,0.5-1,0.5-1.4,1c-0.5,0-1,0.5-1,0.5c-0.5,0-0.5,0.5-1,0.5h-0.5h-0.5h-0.5h-0.5
			c-0.5,0-0.5,0-1,0s-0.5,0-1,0c-0.5,0-1,0-1,0h-1h-1H512h-0.5H511h-0.5h-0.5h-0.5h-0.5h-0.5h-0.5l-0.5-0.5l-0.5-0.5l-0.5-0.5
			l-1-0.5l-1-1l-1-1l0.5-1l-1-1l-1-1l-1-1l-1-1.9c-1-1.4-1.9-2.9-2.9-4.3c-0.5-1-1-1.4-1.4-2.4c-0.5-0.5-1-1.4-1.4-1.9l-0.5-1
			l-0.5-1l-0.5-1l-0.5-1l-1-0.5l-1-0.5l-0.5-0.5H490h-0.5H489h-0.5l-0.5-0.5l-0.5-0.5l-0.5-0.5l-0.5-0.5l-0.5-0.5l-0.5-0.5l-0.5-0.5
			l-0.5-0.5l-0.5-0.5V5.3V4.8l0,0l0,0l0,0l0,0l0,0l0,0l0,0l0,0l0,0l0,0l0,0l0,0l0,0l0,0h0.5h0.5h0.5h0.5c0,0,0.5,0,0.5-0.5
			s0.5,0,1-0.5c0.5,0,0.5,0,1,0s0.5,0,1,0s1,0,1,0c0.5,0,1,0,1,0s1,0,1.4,0c0.5,0,1,0,1.4,0c0.5,0,1,0,1.4,0c0.5,0,1,0,1.9,0
			s1,0,1.9,0h1h1h1h0.5h0.5h0.5h0.5h0.5h0.5l0.5,0.5l0.5,0.5l0.5,0.5l0.5,0.5l0.5,0.5l0.5,0.5l0.5,0.5l0.5,0.5l0.5,0.5l0.5,0.5
			l0.5,0.5l0.5,1l0.5,1l0.5,1l0.5,1l0.5,1l0.5,1c0.5,1.4,0.5,2.9,1,4.3c0,1,0.5,1.4,0.5,1.9l0.5,1c0,0.5,0,0.5,0.5,1
			c0.5,0.5,0,0.5,0.5,1c0.5,0.5,0.5,0.5,0.5,1v0.5v0.5l0.5,0.5l0.5,0.5h0.5h0.5h0.5h0.5h0.5h0.5h0.5h0.5h0.5h0.5h0.5h0.5h0.5h0.5
			h0.5h0.5h0.5l0.5-0.5v-0.5v-0.5v-0.5v-0.5V24v-0.5c0-0.5,0-0.5,0-1s0-0.5,0-1s0-1.4,0-1.9s0-1.4,0-2.4c0-1,0-1.4,0.5-2.4v-1l0.5-1
			l0.5-1l0.5-1l0.5-0.5l0.5-0.5l0.5-0.5l0.5-0.5l0.5-0.5l0.5-0.5l0.5-0.5l0.5-0.5l0.5-0.5l0.5-0.5l0.5-0.5l0.5-0.5l0.5-0.5l1-0.5
			l1-0.5l1-0.5h1h1h1c0.5,0,0.5,0,1,0c0.5,0,1,0,1,0c0.5,0,1,0,1,0c0.5,0,1,0,1,0c0.5,0,1,0,1.4,0s1,0,1.4,0c0.5,0,1,0,1.4,0
			c0.5,0,1,0,1.9,0h1.9h1h1h1h1c0.5,0,0.5,0,1,0h0.5h0.5h0.5L554.1,2L554.1,2L554.1,2L554.1,2z"/>
		<path class="st0" d="M375.5,2L375.5,2L375,2.4v0.5v0.5v0.5v0.5c0,0,0,0.5-0.5,1v1v1v1v1v1.9c0,0.5,0,1.4,0,1.9c0,0.5,0,1,0,1.4
			c0,0.5,0,1,0,1.4c0,0.5,0,1,0,1.4c0,0.5,0,1,0,1c0,0.5,0,1,0,1c0,0.5,0,1,0,1c0,0.5,0,0.5,0,1v1v1l0.5,1l0.5,1l0.5,1l0.5,1
			l0.5,0.5l0.5,0.5l0.5,0.5l0.5,0.5l0.5,0.5l0.5,0.5l-1-1l0.5,0.5l0.5,0.5l0.5,0.5l0.5,0.5h0.5h0.5l1,0.5l1,0.5h1h1c1,0,1.4,0,2.4,0
			s1.4,0,2.4,0s1.4,0,1.9,0c0.5,0,0.5,0,1,0s0.5,0,1,0h0.5h0.5h0.5h0.5h0.5h0.5h0.5h0.5l0,2.9V35v0.5V36v0.5v0.5v0.5v0.5v0.5v0v0.5
			v0.5v0.5v0.5l-0.5,0.5h-0.5h-0.5h-0.5h-0.5h-0.5c-0.5,0-0.5,0-1,0.5c-0.5,0-0.5,0-1,0.5c-0.5,0-0.5,0-1,0.5h-1
			c-0.5,0-1.4,0.5-1.9,0.5c-1.4,0.5-2.9,0.5-4.3,1l-1,0.5l-0.5,0l-1,0.5l-1,0.5l-1,0.5l-1,0.5l-0.5,0.5l-0.5,0l-0.5,0.5l-0.5,0.5
			l-0.5,0.5l-0.5,0l-0.5,0.5l-0.5,0.5l-0.5,0.5l-0.5,0.5l-0.5,0.5l-0.5,0.5l-0.5,0.5v0.5v0.5v0.5v0.5v1v1v1c0,0.5,0,1.4,0,1.9
			s0,1,0,1.9c0,0.5,0,1,0,1.4c0,0.5,0,1,0,1.4c0,0.5,0,1,0,1.4c0,0.5,0,1,0,1c0,0.5,0,1,0,1s0,0.5,0,1c0,0.5,0,0.5,0.5,1
			c0,0.5,0,0.5,0.5,1s0,0.5,0.5,0.5V70v0.5l0,0l0,0l0,0l0,0l0,0l0,0l0,0l0,0l0,0h0.5h0.5h0.5h0.5h0.5h1.4h0.5h0.5h0.5l0.5-0.5
			l0.5-0.5l0.5-0.5l0.5-0.5l0.5-0.5l0.5-0.5l0.5-0.5l0.5-0.5l0.5-0.5l0.5-0.5v-0.5l0.5-0.5l0.5-0.5l0.5-0.5l0.5-1l0.5-1l1-0.5l1-0.5
			l1-0.5l1-0.5c0.5-0.5,1.4-1,1.9-1.4c1-0.5,1.4-1,1.9-1.4c1.4-1,2.9-1.9,4.3-2.9l1.9-1.4l1-1l1-1l1-1l1-1l1-1l1-1l0.5-1l0.5-0.5
			l0.5-0.5l0.5-0.5l0.5-0.5l0.5-0.5v-0.5v-0.5v-0.5v-0.5v-0.5v0.5v-0.5v-1v-1c0-0.5,0-1,0-1c0-0.5,0-1,0-1c0-0.5,0-0.5,0-1V36v-0.5
			V35v-0.5c0-0.5-0.5-0.5-0.5-1s-0.5-1-0.5-1c-0.5-0.5-0.5-1-1-1.4c0.5,0.5,1,0.5,1.4,1c0.5,0,1,0.5,1,0.5c0.5,0,0.5,0.5,1,0.5h0.5
			h0.5h0.5h0.5c0.5,0,0.5,0,1,0s0.5,0,1,0s1,0,1,0h1h1h0.5h0.5h0.5h0.5h0.5h0.5h0.5h0.5h0.5l0.5-0.5l0.5-0.5l-1.4,0l1-0.5l1-1l1-1
			l1-1l1-1l1-1l1-1l1-1.9c1-1.4,1.9-2.9,2.9-4.3c0.5-1,1-1.4,1.4-2.4c0.5-0.5,1-1.4,1.4-1.9l0.5-1l0.5-1l0.5-1l0.5-1l1-0.5l1-0.5
			l0.5-0.5h0.5h0.5h0.5l0-0.5l0.5-0.5l0.5-0.5l0.5-0.5l0.5-0.5l0.5-0.5l0.5-0.5l0.5-0.5l0.5-0.5l0.5-0.5V4.8V4.3l0,0l0,0l0,0l0,0
			l0,0l0,0l0,0l0,0l0,0l0,0l0,0l0,0l0,0l0,0h-0.5H444h-0.5H443c0,0-0.5,0-0.5-0.5s-0.5,0-1-0.5c-0.5,0-0.5,0-1,0s-0.5,0-1,0
			s-1,0-1,0c-0.5,0-1,0-1,0S436.3,0,435.9,0c-0.5,0-1,0-1.4,0c-0.5,0-1,0-1.4,0c-0.5,0-1,0-1.9,0c-0.5,0-1,0-1.9,0h-1h-1h-1h-0.5
			h-0.5h-0.5h-0.5h-0.5h-0.5l-0.5,0.5L422.4,1L422,1.5l-0.5,1.4L421,3.4l-0.5,0.5L420,4.3l-0.5,0.5l0,0l-0.5,0.5l-0.5,0.5l-0.5,1
			l-0.5,1l-0.5,1l-0.5,1l-0.5,1l0.5,1.9c-0.5,1.4-0.5,2.9-1,4.3c0,1-0.5,1.4-0.5,1.9l-0.5,1c0,0.5,0,0.5-0.5,1s0,0.5-0.5,1
			s-0.5,0.5-0.5,1V23v0.5l-0.5,0.5l-0.5,0.5h-0.5h-0.5h-0.5h-0.5H410h-0.5H409h-0.5h-0.5h-0.5h-0.5h-0.5h-0.5h-0.5h-0.5h-0.5h-0.5
			l2.9-1V23v-0.5v-0.5v-0.5v-0.5v-0.5c0-0.5,0-0.5,0-1s0-0.5,0-1s0-1.4,0-1.9c0-0.5,0-1.4,0-2.4s0-1.4-0.5-2.4v-1l-0.5-1l-0.5-1
			l-0.5-1l-0.5-0.5l-0.5-0.5l-0.5-0.5l-0.5-0.5l-0.5-0.5l-0.5-0.5l-0.5-0.5l-0.5-0.5l-0.5-0.5l-0.5-0.5l-0.5-0.5l-0.5-0.5L399,2
			l-1-0.5l-1-0.5l-1-0.5h-1h-1h-1c-0.5,0-0.5,0-1,0s-1,0-1,0c-0.5,0-1,0-1,0c-0.5,0-1,0-1,0c-0.5,0-1,0-1.4,0c-0.5,0-1,0-1.4,0
			c-0.5,0-1,0-1.4,0c-0.5,0-1,0-1.9,0h-1.9h-1h-1h-1h-1c-0.5,0-0.5,0-1,0H376h-0.5H375L375.5,2L375.5,2L375.5,2L375.5,2z"/>
		<path class="st1" d="M464.6,178.2L464.6,178.2h1h0.5h0.5h0.5h0.5l1-0.5l1-0.5l1-0.5c0.5,0,0.5-0.5,1-0.5s0.5-0.5,0.5-0.5
			l76.6-76.6l0.5-0.5c0,0,0.5-0.5,0.5-1l0.5-1l0.5-1l0.5-1v-0.5v-0.5v-0.5v-0.5v-0.5V92v-1v-0.5v-0.5v-0.5v-0.5v-0.5l-0.5-1l-0.5-1
			l-0.5-1c0-0.5-0.5-0.5-0.5-1l-0.5-0.5L471.8,7.7l-0.5-0.5c0,0-0.5-0.5-1-0.5l-1-0.5l-1-0.5l-1-1H467h-0.5H466h-0.5h-0.5h-0.5h0
			h-0.5h-0.5h-0.5h-0.5h-0.5l-1,0.5l-1,0.5l-1,0.5c-0.5,0-0.5,0.5-1,0.5s-0.5,0.5-0.5,0.5l-76.6,76.6l-0.5,0.5c0,0-0.5,0.5-0.5,1
			l-0.5,1l-0.5,1l-1,1.4v0.5v0.5v0.5v0.5V91v0.5V92v0.5v0.5v0.5v0.5v0.5l0.5,1l0.5,1l0.5,1c0,0.5,0.5,0.5,0.5,1l0.5,0.5l76.6,76.6
			l0.5,0.5c0,0,0.5,0.5,1,0.5l1,0.5l1,0.5l1,0.5h0.5h0.5h0.5h0.5L464.6,178.2L464.6,178.2z"/>
		<polygon class="st0" points="464.6,142.8 464.1,142.8 463.6,142.8 463.2,142.3 462.7,142.3 462.2,142.3 462.2,141.8 461.7,141.8 
			461.2,141.3 447.3,127.4 446.9,127 446.9,126.5 446.4,126 445.9,125.5 445.9,125 445.4,124.6 445,124.1 445,123.6 444.5,123.1 
			444.5,122.6 444.5,122.2 444,121.7 444,121.2 444,120.2 444,119.3 444,118.3 444,116.9 444,115.9 444.5,114.5 444.5,113.5 
			445,112.1 445.4,111.1 445.9,110.2 445,110.7 443.5,111.1 442.6,111.6 441.6,111.6 440.2,112.1 439.2,112.1 437.8,112.1 
			436.8,112.1 435.4,112.1 434.9,112.1 434.4,111.6 433.9,111.6 433.5,111.6 433,111.1 432,111.1 432,110.7 431.1,110.7 
			430.6,110.2 430.1,110.2 429.6,109.7 429.1,109.2 429.1,109.2 428.7,108.8 414.8,94.9 414.3,94.4 414.3,93.9 413.8,93.4 
			413.8,92.9 413.3,92.5 413.3,92 413.3,91.5 413.3,91 413.3,90.6 413.3,90.1 413.3,89.6 413.8,89.1 413.8,88.6 414.3,88.2 
			414.3,88.2 414.8,87.7 428.7,73.8 429.1,73.3 429.1,73.3 429.6,72.8 430.1,72.4 430.6,71.9 431.1,71.9 432,71.4 432,71.4 
			433,70.9 433.5,70.9 433.9,70.9 434.4,70.4 434.9,70.4 435.4,70.4 436.8,70.4 437.8,70.4 439.2,70.4 440.2,70.4 441.6,70.9 
			442.6,70.9 443.5,71.4 445,71.9 445.9,72.4 445.4,71.4 445,70 444.5,69 444.5,67.6 444,66.6 444,65.7 444,64.2 444,63.3 444,61.8 
			444,61.3 444,60.9 444.5,60.4 444.5,59.9 444.5,59.4 445,58.9 445,58 445.4,57.5 445.9,57 445.9,56.6 446.4,56.1 446.9,55.6 
			446.9,55.1 447.3,55.1 461.2,41.2 461.7,40.7 462.2,40.7 462.2,40.3 462.7,40.3 463.2,39.8 463.6,39.8 464.1,39.8 464.6,39.8 
			465.5,39.8 465.5,39.8 466,39.8 467,40.3 467,40.3 467.5,40.7 467.9,40.7 468.4,41.2 482.3,55.1 482.8,55.1 482.8,55.6 
			483.3,56.1 483.7,56.6 483.7,57 484.2,57.5 484.7,58 484.7,58.9 484.7,59.4 485.2,59.9 485.2,60.4 485.2,60.9 485.7,61.3 
			485.7,61.8 485.7,63.3 485.7,64.2 485.7,65.7 485.7,66.6 485.2,67.6 485.2,69 484.7,70 484.2,71.4 483.7,72.4 484.7,71.9 
			485.7,71.4 487.1,70.9 488.1,70.9 489.5,70.4 490.4,70.4 491.9,70.4 492.8,70.4 493.8,70.4 494.8,70.4 495.2,70.4 495.7,70.9 
			496.2,70.9 496.7,70.9 497.2,71.4 497.6,71.4 498.1,71.9 498.6,71.9 499.1,72.4 499.5,72.8 500,73.3 500.5,73.3 501,73.8 
			514.9,87.7 515.4,88.2 515.4,88.2 515.8,88.6 515.8,89.1 515.8,89.6 516.3,90.1 516.3,90.6 516.3,91 516.3,91.5 516.3,92 
			515.8,92.5 515.8,92.9 515.8,93.4 515.4,93.9 515.4,94.4 514.9,94.9 501,108.8 500.5,109.2 500,109.2 499.5,109.7 499.1,110.2 
			498.6,110.2 498.1,110.7 497.6,110.7 497.2,111.1 496.7,111.1 496.2,111.6 495.7,111.6 495.2,111.6 494.8,112.1 493.8,112.1 
			492.8,112.1 491.9,112.1 490.4,112.1 489.5,112.1 488.1,111.6 487.1,111.6 485.7,111.1 484.7,110.7 483.7,110.2 484.2,111.1 
			484.7,112.1 485.2,113.5 485.2,114.5 485.7,115.9 485.7,116.9 485.7,118.3 485.7,119.3 485.7,120.2 485.7,121.2 485.2,121.7 
			485.2,122.2 485.2,122.6 484.7,123.1 484.7,123.6 484.7,124.1 484.2,124.6 483.7,125 483.7,125.5 483.3,126 482.8,126.5 
			482.8,127 482.3,127.4 468.4,141.3 467.9,141.8 467.5,141.8 467,142.3 467,142.3 466,142.3 465.5,142.8 465.5,142.8 		"/>
		<path class="st2" d="M464.6,123.1L464.6,123.1h-0.5h-0.5h-0.5h-0.5h-0.5h-0.5h-0.5h-0.5h-0.5l-0.5-0.5l-0.5-0.5l-0.5-0.5l1.4-1.9
			l-0.5-1l-0.5-1l-0.5-1l-0.5-1v-1v-1v-1v-0.5v-0.5v-0.5v-0.5l0.5-1l0.5-1l0.5-1c0-0.5,0.5-0.5,0.5-1c0-0.5,0.5-0.5,0.5-1
			c0,0,0.5-0.5,0.5-1l1-1.4c0-0.5,0.5-0.5,0.5-1l0.5-1v-0.5v-0.5v-0.5v-0.5c0-0.5,0-0.5,0.5-1c0-0.5,0-1,0-1c0-0.5,0-1,0-1
			c0-0.5,0-1,0-1.4v-0.5v-0.5v-0.5v-0.5v-0.5v-0.5l-0.5-0.5l-0.5-0.5h-0.5h-0.5h-0.5h-0.5h-0.5h-0.5h-0.5h-0.5c-0.5,0-1,0-1.4,0
			c-0.5,0-1,0-1,0h-1c-0.5,0-0.5,0-1,0h-0.5h-0.5h-0.5h-0.5l-1,0.5c-0.5,0-0.5,0.5-1,0.5l-1.4,1c0,0-0.5,0.5-1,0.5s-0.5,0.5-1,0.5
			c-0.5,0,1,1,1,1l-1,0.5l-1,0.5h-1H445h-0.5H444h-0.5h-1h-1h-1h-1l-1-0.5l-1.9-0.5h-0.5l-0.5-0.5l-0.5-0.5l-0.5-0.5l-0.5-0.5l0,0
			l0,0v-0.5v-0.5v-0.5V92v-0.5V91v-0.5V91v-0.5v-0.5v-0.5v-0.5v-0.5v-0.5v-0.5v-0.5l0,0l0,0l0.5-0.5l0.5-0.5l0.5-0.5l0.5-0.5l1-0.5
			l1-0.5l1-0.5h1h1h1h1h0.5h0.5h0.5h0.5h1l1,0.5l1,0.5c0.5,0,0.5,0.5,1,0.5c0.5,0,0.5,0.5,1,0.5s0.5,0.5,1,0.5l1.4,1
			c0.5,0,0.5,0.5,1,0.5l1,0.5h0.5h0.5h0.5h0.5h0.5h0.5c0.5,0,1,0,1,0c0.5,0,1,0,1,0c0.5,0,1,0,1.4,0h0.5h0.5h0.5h0.5h0.5h0.5h0.5
			h0.5l0.5-0.5l0.5-0.5v-0.5v-0.5v-0.5v-0.5v-0.5v-0.5c0-0.5,0-1,0-1.4c0-0.5,0-1,0-1c0-0.5,0-1,0-1c0-0.5,0-0.5-0.5-1v-0.5v-0.5
			v-0.5v-0.5l-0.5-1c0-0.5-0.5-0.5-0.5-1l-2.4,0.5c0,0-0.5-0.5-0.5-1c0-0.5-0.5-0.5-0.5-1s-0.5,0-0.5-0.5l-0.5-1l-0.5-1l-0.5-1v-0.5
			v-0.5V70v-0.5v-1v-1v-1l0.5-1l0.5-1l0.5-1l0.5-1l0.5-0.5l0.5-0.5l0.5-0.5l0.5-0.5h0.5h0.5h0.5h0.5h0.5h0.5h0.5h0.5h0.5h-1.9h0.5
			h0.5h0.5h0.5h0.5h0.5h0.5h0.5h0.5h0.5l0.5,0.5l0.5,0.5l0.5,0.5h-1.4l0.5,1l0.5,1l0.5,1l0.5,1v1v1v1v0.5V70v0.5v0.5l-0.5,1l-0.5,1
			l-0.5,1c0,0.5-0.5,0.5-0.5,1c0,0.5-0.5,0.5-0.5,1c0,0-0.5,0.5-0.5,1l-1,1.4c0,0.5-0.5,0.5-0.5,1l-0.5,1v0.5V81v0.5v0.5
			c0,0.5,0,0.5-0.5,1c0,0.5,0,1,0,1c0,0.5,0,1,0,1c0,0.5,0,1,0,1.4v0.5v0.5v0.5v0.5v0.5v0.5l0.5,0.5l0.5,0.5h0.5h0.5h0.5h0.5h0.5
			h0.5h0.5h0.5c0.5,0,1,0,1.4,0c0.5,0,1,0,1,0h1h0.5h0.5h0.5h0.5h0.5h0.5h0.5h0.5c0.5,0,0.5-0.5,1-0.5l1.4-1c0,0,0.5-0.5,1-0.5
			s0.5-0.5,1-0.5s0.5-0.5,1-0.5l1-0.5l1-0.5h1h0.5h0.5h0.5h0.5h1h1h1h1l1,0.5l1,0.5l-0.5-1l0.5,0.5l0.5,0.5l0.5,0.5l0.5,0.5l0,0l0,0
			v0.5v0.5v0.5v0.5v0.5V91v0.5V91v0.5V92v0.5v0.5v0.5v0.5v0.5v0.5l0,0l0,0l-0.5,0.5l-0.5,0.5l-0.5,0.5l-0.5-0.5l-1,0.5l-1,0.5
			l-1,0.5h-1h-1h-1h-1h-0.5h-0.5h-0.5h-0.5h-1l-1-0.5l-1-0.5c-0.5,0-0.5-0.5-1-0.5s-0.5-0.5-1-0.5s-0.5-0.5-1-0.5l-1.4-1
			c-0.5,0-0.5-0.5-1-0.5l-1-0.5h-0.5h-0.5h-0.5h-0.5c-0.5,0-0.5,0-1,0c-0.5,0-1,0-1,0c-0.5,0-1,0-1,0c-0.5,0-1,0-1.4,0h-0.5h-0.5
			h-0.5h-0.5H467h-0.5H466h-0.5l-0.5,0.5l-0.5,0.5v0.5v0.5v0.5v0.5v0.5v0.5c0,0.5,0,1,0,1.4c0,0.5,0,1,0,1c0,0.5,0,1,0,1
			c0,0.5,0,0.5,0.5,1v0.5v0.5v0.5v0.5l0.5,1c0,0.5,0.5,0.5,0.5,1l1,1.4c0,0,0.5,0.5,0.5,1c0,0.5,0.5,0.5,0.5,1s0.5,0.5,0.5,1l0.5,1
			l0.5,1l0.5,1v0.5v0.5v0.5v0.5v1v1v1l-0.5,1l-0.5,1l-0.5,1l1,0l-0.5,0.5l-0.5,0.5l-0.5,0.5l-0.5,0.5H467h-0.5H466h-0.5h-0.5h-0.5
			h-0.5h-0.5L464.6,123.1L464.6,123.1L464.6,123.1z"/>
	</g>
	<g>
		<path class="st0" d="M375.5,375.5L375.5,375.5l0.5-0.5h0.5h0.5h0.5h0.5c0.5,0,0.5,0,1,0h1h1h1h1h1.9c0.5,0,1.4,0,1.9,0s1,0,1.4,0
			c0.5,0,1,0,1.4,0c0.5,0,1,0,1.4,0c0.5,0,1,0,1,0c0.5,0,1,0,1,0c0.5,0,1,0,1,0s0.5,0,1,0h1h1h1l1,0.5l1,0.5l1,0.5l0.5,0.5l0.5,0.5
			l0.5,0.5l0.5,0.5l0.5,0.5l0.5,0.5l-1-1l0.5,0.5l0.5,0.5l0.5,0.5l0.5,0.5l0.5,0.5l0.5,0.5l0.5,1l0.5,1l0.5,1v1c0,1,0,1.4,0.5,2.4
			c0.5,1,0,1.4,0,2.4s0,1.4,0,1.9c0,0.5,0,0.5,0,1s0,0.5,0,1v0.5v0.5v0.5v0.5v0.5v0.5l0.5,0.5h0.5h0.5h0.5h0.5h0.5h0.5h0.5h0.5h0.5
			h0.5h-0.5h0.5h0.5h0.5h0.5h0.5h0.5l0.5-0.5l0.5-0.5v-0.5v-0.5c0,0,0.5-0.5,0.5-1s0-0.5,0.5-1c0-0.5,0-0.5,0.5-1l0.5-1
			c0-0.5,0.5-1.4,0.5-1.9c0.5-1.4,0.5-2.9,1-4.3l0.5-1l0.5-1l0.5-1l0.5-1l0.5-1l0.5-1l0.5-0.5l0.5-0.5l0.5-0.5l0.5-0.5l0.5-0.5
			l0.5-0.5l0.5-0.5l0.5-0.5l0.5-0.5l0.5-0.5l0.5-0.5h0.5h0.5h0.5h0.5h0.5h0.5h1h1h1c0.5,0,1.4,0,1.9,0s1,0,1.9,0c0.5,0,1,0,1.4,0
			c0.5,0,1,0,1.4,0c0.5,0,1,0,1.4,0s1,0,1,0c0.5,0,1,0,1,0s0.5,0,1,0s0.5,0,1,0c0.5,0,0.5,0,1,0.5s0.5,0,0.5,0.5h0.5h0.5h0.5h0.5
			l0,0l0,0l0,0l0,0l0,0l0,0l0,0l0,0l0,0l0,0l0,0l0,0l0,0l0,0v0.5v0.5l-0.5,0.5l-0.5,0.5l-0.5,0.5l-0.5,0.5l-0.5,0.5l-0.5,0.5
			l-0.5,0.5l-0.5,0.5l-0.5,0.5l-3.4,2.9h-0.5h-0.5h-0.5l-0.5,0.5l-1,0.5l-1,0.5l-0.5,1l-0.5,1l-0.5,1l-0.5,1c-0.5,0.5-1,1.4-1.4,1.9
			c-0.5,1-1,1.4-1.4,2.4c-1,1.4-1.9,2.9-2.9,4.3l-1.4,2.4l-1,1l-0.5,1l-0.5,1l-1,1l-1,1l-1,1l-1,0.5l-0.5,0l-0.5,0.5l-0.5,0.5H420
			h-0.5h-0.5h-0.5h-0.5h-0.5h-0.5h-0.5h-0.5h-1h-1c-0.5,0-1,0-1,0c-0.5,0-1,0-1,0s-0.5,0-1,0h-0.5h-0.5H410h-0.5
			c-0.5,0-0.5-0.5-1-0.5s-1-0.5-1-0.5s-1-0.5-1.4-1c0.5,0.5,0.5,1,1,1.4c0.5,0.5,0.5,1,0.5,1c0,0.5,0.5,0.5,0.5,1v0.5v0.5v0.5v0.5
			c0,0.5,0,0.5,0,1s0,0.5,0,1s0,1,0,1v1v1v0.5v0.5v0.5v0.5v0.5v0.5v0.5l-0.5,0.5l-0.5,0.5l-0.5,0.5l-0.5,0.5l-0.5,1.4l-0.5,1l-1,1
			l-1,1l-1,1l-1,1l-1,1l-1,1l-1.9,1c-1.4,1-2.9,1.9-4.3,2.9c-1,0.5-1.4,1-1.9,1.4c-0.5,0.5-1.4,1-1.9,1.4l-1.4,0.5l-1,0.5l-1,0.5
			l-1,0.5l-0.5,1l-0.5,1l-0.5,0.5l-0.5,0.5l0,0v0.5l-0.5,0.5l-0.5,0.5l-0.5,0.5l-0.5,0.5l-0.5,0.5l-0.5,0.5l-0.5,0.5l-0.5,0.5
			l-0.5,0.5l-0.5,0.5h-0.5h-0.5h1h-0.5h-0.5h-0.5h-0.5H376h-0.5l0,0l0,0l0,0l0,0l0,0l0,0l0,0l0,0l0,0v-0.5V444c0,0,0-0.5-0.5-0.5
			s0-0.5-0.5-1c-0.5-0.5,0-0.5-0.5-1c0-0.5,0-0.5,0-1s0-1,0-1c0-0.5,0-1,0-1s0-1,0-1.4c0-0.5,0-1,0-1.4c0-0.5,0-1,0-1.4
			c0-0.5,0-1,0-1.9c0-0.5,0-1,0-1.9v-1v-1v-1v-0.5v-0.5v-0.5v-0.5l0.5-0.5l0.5-0.5l0.5-0.5l0.5-0.5l0.5-0.5l0.5-0.5l0.5-0.5l0.5-0.5
			l0.5-0.5l0.5-0.5l0.5-0.5l0.5-0.5l0.5-0.5l1-0.5l1-0.5l1-0.5l1-0.5l1-0.5l1-0.5c1.4-0.5,2.9-0.5,4.3-1c1,0,1.4-0.5,1.9-0.5h1
			c0.5,0,0.5,0,1-0.5c0.5,0,0.5,0,1-0.5c0.5,0,0.5,0,1-0.5h0.5h0.5h0.5h0.5h0.5l0.5-0.5v-0.5v-0.5v-0.5v-0.5v-0.5v-0.5V410v-0.5V409
			v-0.5v-0.5v-0.5v-0.5l-1.4,0.5h-0.5h-0.5h-0.5h-0.5h-0.5h-0.5h-0.5h-0.5c-0.5,0-0.5,0-1,0s-0.5,0-1,0c-0.5,0-1.4,0-1.9,0
			c-1,0-1.4,0-2.4,0s-1.4,0-2.4,0h-1h-1l-1-0.5l-1-0.5h-0.5h-0.5l-0.5-0.5l-0.5-0.5l-0.5-0.5l-0.5-2.9l-0.5-0.5l-0.5-0.5l-0.5-0.5
			l-0.5-0.5l-0.5-0.5l-0.5-0.5L375,399l-0.5-1l-0.5-1l-0.5-1l-0.5-1l-0.5-1v-1c0-0.5,0-0.5,0-1s0-1,0-1c0-0.5,0-1,0-1c0-0.5,0-1,0-1
			c0-0.5,0-1,0-1.4c0-0.5,0-1,0-1.4c0-0.5,0-1,0-1.4c0-0.5,0-1,0-1.9v-1.9v-1v-1v-1v-1c0-0.5,0-0.5,0.5-1V376v-0.5V375L375.5,375.5
			L375.5,375.5L375.5,375.5L375.5,375.5z"/>
		<path class="st0" d="M375.5,554.1L375.5,554.1l0.5,0.5h0.5h0.5h0.5h0.5c0.5,0,0.5,0,1,0h1h1h1h1h1.9c0.5,0,1.4,0,1.9,0s1,0,1.4,0
			c0.5,0,1,0,1.4,0c0.5,0,1,0,1.4,0c0.5,0,1,0,1,0c0.5,0,1,0,1,0c0.5,0,1,0,1,0s0.5,0,1,0h1h1h1l1-0.5l1-0.5l1-0.5l0.5-0.5l0.5-0.5
			l0.5-0.5l0.5-0.5l0.5-0.5l0.5-0.5l0.5-0.5l0.5-0.5l0.5-0.5l0.5-0.5l0.5-0.5l0.5-0.5l0.5-0.5l0.5-1l0.5-1l0.5-1v-1
			c0-1,0-1.4,0.5-2.4c0.5-1,0-1.4,0-2.4c0-1,0-1.4,0-1.9c0-0.5,0-0.5,0-1c0-0.5,0-0.5,0-1V534v-0.5v-0.5v-0.5v-0.5v-0.5l0.5-0.5h0.5
			h0.5h0.5h0.5h0.5h0.5h0.5h0.5h0.5h0.5h-1.9h0.5h0.5h0.5h0.5h0.5h0.5l0.5,0.5l0.5,0.5v0.5v0.5c0,0,0.5,0.5,0.5,1s0,0.5,0.5,1
			c0,0.5,0,0.5,0.5,1l0.5,1c0,0.5,0.5,1.4,0.5,1.9c0.5,1.4,0.5,2.9,1,4.3l0.5,1l0.5,1l0.5,1l0.5,1l0.5,1l0.5,1l0.5,0.5l0.5,0.5
			l0.5,0.5l0.5,0.5l0.5,0.5l0.5,0.5l0.5,0.5l0.5,0.5l0.5,0.5l0.5,0.5l0.5,0.5h0.5h0.5h0.5h0.5h0.5h0.5h1h1h1c0.5,0,1.4,0,1.9,0
			s1,0,1.9,0c0.5,0,1,0,1.4,0c0.5,0,1,0,1.4,0c0.5,0,1,0,1.4,0c0.5,0,1,0,1,0c0.5,0,1,0,1,0s0.5,0,1,0s0.5,0,1,0c0.5,0,0.5,0,1-0.5
			s0.5,0,0.5-0.5h0.5h0.5h0.5h0.5l0,0l0,0l0,0l0,0l0,0l0,0l0,0l0,0l0,0l0,0l0,0l0,0l0,0l0,0v-0.5v-0.5l-0.5-0.5l-0.5-0.5l-0.5-0.5
			l-0.5-0.5l-0.5-0.5l-0.5-0.5l-0.5-0.5l-0.5-0.5l-0.5-0.5h-0.5H443h-0.5h-0.5l-0.5-0.5l-1-0.5l-1-0.5l-0.5-1l-0.5-1l-0.5-1l-0.5-1
			c-0.5-0.5-1-1.4-1.4-1.9c-0.5-1-1-1.4-1.4-1.9c-1-1.4-1.9-2.9-2.9-4.3l-1.4-2.4l-1-1l-1-1l-1-1l-1-1l-1-1l-1-1l-1-0.5l-0.5-0.5
			l-0.5-0.5l-0.5-0.5H422h-0.5H421h-0.5H420h-0.5h-0.5h-0.5h-0.5h-1h-1c-0.5,0-1,0-1,0c-0.5,0-1,0-1,0s-0.5,0-1,0h-0.5h-0.5h-0.5
			h-0.5c-0.5,0-0.5,0.5-1,0.5s-1,0.5-1,0.5s-1,0.5-1.4,1c0.5-0.5,0.5-1,1-1.4s0.5-1,0.5-1c0-0.5,0.5-0.5,0.5-1v-0.5v-0.5v-0.5v-0.5
			c0-0.5,0-0.5,0-1c0-0.5,0-0.5,0-1c0-0.5,0-1,0-1v-1v-1v-0.5v-0.5v-0.5v-0.5v-0.5v-0.5V513l-0.5-0.5L409,512l-0.5-0.5l-0.5-0.5
			l-0.5-0.5l-0.5-1l-1-1l-1-1l-1-1l-1-1l-1-1l-1-1l-1.9-1.4c-1.4-1-2.9-1.9-4.3-2.9c-1-0.5-1.4-1-1.9-1.4c-0.5-0.5-1.4-1-1.9-1.4
			l-1-0.5l-1-0.5l-1-0.5l-1-0.5l-0.5-1l-0.5-1l-0.5-0.5l-0.5-0.5l-0.5-0.5v-0.5l-0.5-0.5l-0.5-0.5l-0.5-0.5l-0.5-0.5l-0.5-0.5
			l-0.5-0.5l-0.5-0.5l-0.5-0.5l-0.5-0.5l-0.5-0.5h-0.5h-0.5h-1h-0.5h-0.5h-0.5h-0.5H376h-0.5l0,0l0,0l0,0l0,0l0,0l0,0l0,0l0,0l0,0
			v0.5v0.5c0,0,0,0.5-0.5,0.5s0,0.5-0.5,1s0,0.5-0.5,1c0,0.5,0,0.5,0,1s0,1,0,1c0,0.5,0,1,0,1s0,1,0,1.4c0,0.5,0,1,0,1.4
			c0,0.5,0,1,0,1.4c0,0.5,0,1,0,1.9c0,0.5,0,1,0,1.9v1v1v1v0.5v0.5v0.5v0.5l0.5,0.5l0.5,0.5l0.5,0.5l0.5,0.5l0.5,0.5l0.5,0.5
			l0.5,0.5l0.5,0.5l0.5,0.5l0.5,0.5l0.5,0.5l0.5,0.5l0.5,0.5l1,0.5l1,0.5l1,0.5l1,0.5l1,0.5l1,0.5c1.4,0.5,2.9,0.5,4.3,1
			c1,0,1.4,0.5,1.9,0.5h1c0.5,0,0.5,0,1,0.5c0.5,0,0.5,0,1,0.5c0.5,0,0.5,0,1,0.5h0.5h0.5h0.5h0.5h0.5l0.5,0.5v0.5v0.5v0.5v0.5v0.5
			v0.5v0.5v0.5v0.5v0.5v0.5v0.5v0.5l-1.4-1.9h-0.5h-0.5h-0.5h-0.5h-0.5h-0.5h-0.5h-0.5c-0.5,0-0.5,0-1,0s-0.5,0-1,0
			c-0.5,0-1.4,0-1.9,0c-1,0-1.4,0-2.4,0s-1.4,0-2.4,0h-1h-1l-1,0.5l-1,0.5h-0.5h-0.5l-0.5,0.5l-0.5,0.5l-0.5,0.5l-0.5,0.5l-0.5,0.5
			l-0.5,0.5l-0.5,0.5l-0.5,0.5l-0.5,0.5l-0.5,0.5l-0.5,0.5l-0.5,1l-0.5,1l-0.5,1l-0.5,1l-0.5,1v1c0,0.5,0,0.5,0,1c0,0.5,0,1,0,1
			c0,0.5,0,1,0,1c0,0.5,0,1,0,1c0,0.5,0,1,0,1.4c0,0.5,0,1,0,1.4s0,1,0,1.4s0,1,0,1.9v1.9v1v1v1v1c0,0.5,0,0.5,0.5,1v0.5v0.5v0.5
			L375.5,554.1L375.5,554.1L375.5,554.1L375.5,554.1z"/>
		<path class="st0" d="M554.1,554.1L554.1,554.1l-0.5,0.5h-0.5h-0.5h-0.5h-0.5c-0.5,0-0.5,0-1,0h-1h-1h-1h-1H545c-0.5,0-1.4,0-1.9,0
			s-1,0-1.4,0c-0.5,0-1,0-1.4,0c-0.5,0-1,0-1.4,0c-0.5,0-1,0-1,0c-0.5,0-1,0-1,0c-0.5,0-1,0-1,0s-0.5,0-1,0h-1h-1h-1l-1-0.5l-1-0.5
			l-1-0.5l-0.5-0.5l-0.5-0.5l-0.5-0.5l-0.5-0.5l-0.5-0.5l-0.5-0.5l-0.5-0.5l1,1l-0.5-0.5l-0.5-0.5l-0.5-0.5l-0.5-0.5l-0.5-0.5
			l-0.5-1l-0.5-1l-0.5-1v-1c0-1,0-1.4-0.5-2.4c-0.5-1,0-1.4,0-2.4s0-1.4,0-1.9s0-0.5,0-1c0-0.5,0-0.5,0-1v-0.5V535v-0.5V534v-0.5
			v-0.5l-0.5-0.5h-0.5h-0.5h-0.5h-0.5h-0.5h-0.5h-0.5h-0.5h-0.5h-0.5h-0.5h-0.5h-0.5h-0.5h-0.5h-0.5h-0.5l-0.5,0.5l-0.5,0.5v0.5v0.5
			c0,0-0.5,0.5-0.5,1c0,0.5,0,0.5-0.5,1c0,0.5,0,0.5-0.5,1l-0.5,1c0,0.5-0.5,1.4-0.5,1.9c-0.5,1.4-0.5,2.9-1,4.3l-0.5,1l-0.5,1
			l-0.5,1l-0.5,1l-0.5,1l-0.5,1l-0.5,0.5l-0.5,0.5l-0.5,0.5l-0.5,0.5l-0.5,0.5l-0.5,0.5l-0.5,0.5l-0.5,0.5l-0.5,0.5l-0.5,0.5
			l-0.5,0.5H501h-0.5H500h-0.5h-0.5h-0.5h-1h-1h-1c-0.5,0-1.4,0-1.9,0c-0.5,0-1,0-1.9,0c-0.5,0-1,0-1.4,0c-0.5,0-1,0-1.4,0
			c-0.5,0-1,0-1.4,0c-0.5,0-1,0-1,0c-0.5,0-1,0-1,0s-0.5,0-1,0s-0.5,0-1,0s-0.5,0-1-0.5c-0.5-0.5-0.5,0-0.5-0.5h-0.5h-0.5h-0.5h-0.5
			l0,0l0,0l0,0l0,0l0,0l0,0l0,0l0,0l0,0l0,0l0,0l0,0l0,0l0,0v-0.5v-0.5l0.5-0.5l0.5-0.5l0.5-0.5l0.5-0.5l0.5-0.5l0.5-0.5l0.5-0.5
			l0.5-0.5l0.5-0.5h0.5h0.5h0.5h0.5l0.5-0.5l1-0.5l1-0.5l0.5-1l0.5-1l0.5-1l0.5-1c0.5-0.5,1-1.4,1.4-1.9c0.5-1,1-1.4,1.4-1.9
			c1-1.4,1.9-2.9,2.9-4.3l1.4-2.4l1-1l1-1l1-1l1-1l1-1l1-1l1-0.5l0.5-0.5l0.5-0.5l0.5-0.5h0.5h0.5h0.5h0.5h0.5h0.5h0.5h0.5h0.5h1h1
			c0.5,0,1,0,1,0c0.5,0,1,0,1,0s0.5,0,1,0h0.5h0.5h0.5h0.5c0.5,0,0.5,0.5,1,0.5c0.5,0,1,0.5,1,0.5s1,0.5,1.4,1c-0.5-0.5-0.5-1-1-1.4
			c-0.5-0.5-0.5-1-0.5-1c0-0.5-0.5-0.5-0.5-1V524v-0.5V523v-0.5c0-0.5,0-0.5,0-1s0-0.5,0-1c0-0.5,0-1,0-1v-1v-1v-0.5v-0.5v-0.5v-0.5
			v-0.5v-0.5v-0.5l0.5-0.5l0.5-0.5l0.5-0.5l0.5-0.5l0.5-0.5l0.5-1l1-1l1-1l1-1l1-1l1-1l1-1l1.9-1.4c1.4-1,2.9-1.9,4.3-2.9
			c1-0.5,1.4-1,1.9-1.4c0.5-0.5,1.4-1,1.9-1.4l1-0.5l1-0.5l1-0.5l1-0.5l0.5-1l0.5-1l0.5-0.5l0.5-0.5l0.5-0.5v-0.5l0.5-0.5l0.5-0.5
			l0.5-0.5l0.5-0.5l0.5-0.5l0.5-0.5l0.5-0.5l0.5-0.5l0.5-0.5l0.5-0.5h0.5h0.5h0.5h0.5h0.5h0.5h0.5h0.5h0.5l0,0l0,0l0,0l0,0l0,0l0,0
			l0,0l0,0l0,0v0.5v0.5c0,0,0,0.5,0.5,0.5s0,0.5,0.5,1c0.5,0.5,0,0.5,0.5,1c0,0.5,0,0.5,0,1s0,1,0,1c0,0.5,0,1,0,1s0,1,0,1.4
			c0,0.5,0,1,0,1.4c0,0.5,0,1,0,1.4c0,0.5,0,1,0,1.9c0,0.5,0,1,0,1.9v1v1v1v0.5v0.5v0.5v0.5l-0.5,0.5l-0.5,0.5l-0.5,0.5l-0.5,0.5
			l-0.5,0.5l-0.5,0.5l-0.5,0.5l-0.5,0.5l-0.5,0.5l-0.5,0.5l-0.5,0.5l-0.5,0.5l-0.5,0.5l-1,0.5l-1,0.5l-1,0.5l-1,0.5l-1,0.5l-1,0.5
			c-1.4,0.5-2.9,0.5-4.3,1c-1,0-1.4,0.5-1.9,0.5h-1c-0.5,0-0.5,0-1,0.5c-0.5,0-0.5,0-1,0.5c-0.5,0-0.5,0-1,0.5h-0.5h-0.5h-0.5h-0.5
			h-0.5l-0.5,0.5v0.5v0.5v0.5v0.5v0.5v0.5v0.5v0.5v0.5v0.5v0.5v0.5v0.5l0.5,0.5h0.5h0.5h0.5h0.5h0.5h0.5h0.5h0.5c0.5,0,0.5,0,1,0
			c0.5,0,0.5,0,1,0c0.5,0,1.4,0,1.9,0c1,0,1.4,0,2.4,0s1.4,0,2.4,0h1h1l1,0.5l1,0.5h0.5h0.5l0.5,0.5l0.5,0.5l0.5,0.5l0.5,0.5
			l0.5,0.5l0.5,0.5l0.5,0.5l0.5,0.5l0.5,0.5l0.5,0.5l0.5,0.5l0.5,1l0.5,1l0.5,1l0.5,1l0.5,1v1c0,0.5,0,0.5,0,1c0,0.5,0,1,0,1
			c0,0.5,0,1,0,1c0,0.5,0,1,0,1c0,0.5,0,1,0,1.4s0,1,0,1.4s0,1,0,1.4s0,1,0,1.9v1.9v1v1v1v1c0,0.5,0,0.5-0.5,1v0.5v0.5v0.5
			L554.1,554.1L554.1,554.1L554.1,554.1L554.1,554.1z"/>
		<path class="st0" d="M554.1,375.5L554.1,375.5l-0.5-0.5h-0.5h-0.5h-0.5h-0.5c-0.5,0-0.5,0-1,0h-1h-1h-1h-1H545c-0.5,0-1.4,0-1.9,0
			s-1,0-1.4,0c-0.5,0-1,0-1.4,0c-0.5,0-1,0-1.4,0c-0.5,0-1,0-1,0c-0.5,0-1,0-1,0c-0.5,0-1,0-1,0s-0.5,0-1,0h-1h-1h-1l-1,0.5l-1,0.5
			l-1,0.5l-0.5,0.5l-0.5,0.5l-0.5,0.5l-0.5,0.5l-0.5,0.5l-0.5,0.5l-0.5,0.5l-0.5,0.5l-0.5,0.5l-0.5,0.5l-0.5,0.5l-0.5,0.5l-0.5,0.5
			l-0.5,1l-0.5,1l-0.5,1v1c0,1,0,1.4-0.5,2.4c-0.5,1,0,1.4,0,2.4s0,1.4,0,1.9s0,0.5,0,1s0,0.5,0,1v0.5v0.5v0.5v0.5v0.5v0.5l-0.5,0.5
			h-0.5h-0.5h-0.5h-0.5h-0.5h-0.5h-0.5h-0.5h-0.5h-0.5h-0.5h-0.5h-0.5h-0.5h-0.5H513h-0.5L512,398l-0.5-0.5v-0.5v-0.5
			c0,0-0.5-0.5-0.5-1c0-0.5,0-0.5-0.5-1c0-0.5,0-0.5-0.5-1l-0.5-1c0-0.5-0.5-1.4-0.5-1.9c-0.5-1.4-0.5-2.9-1-4.3l-0.5-1l-0.5-1
			l-0.5-1l-0.5-1l-0.5-1l-0.5-1l-0.5-0.5l-0.5-0.5l-0.5-0.5l-0.5-0.5l-0.5-0.5l-0.5-0.5l-0.5-0.5l-0.5-0.5l-0.5-0.5l-0.5-0.5
			l-0.5-0.5h-0.5h-0.5h-0.5h-0.5h-0.5h-0.5h-1h-1h-1c-0.5,0-1.4,0-1.9,0s-1,0-1.9,0c-0.5,0-1,0-1.4,0c-0.5,0-1,0-1.4,0
			c-0.5,0-1,0-1.4,0s-1,0-1,0c-0.5,0-1,0-1,0s-0.5,0-1,0s-0.5,0-1,0c-0.5,0-0.5,0-1,0.5c-0.5,0.5-0.5,0-0.5,0.5h-0.5h-0.5h-0.5H479
			l0,0l0,0l0,0l0,0l0,0l0,0l0,0l0,0l0,0l0,0l0,0l0,0l0,0l0,0v0.5v0.5l0.5,0.5l0.5,0.5l0.5,0.5l0.5,0.5l0.5,0.5l0.5,0.5l0.5,0.5
			l0.5,0.5l0.5,0.5h0.5h0.5h0.5h0.5l0.5,0.5l1,0.5l1,0.5l0.5,1l0.5,1l0.5,1l0.5,1c0.5,0.5,1,1.4,1.4,1.9c0.5,1,1,1.4,1.4,2.4
			c1,1.4,1.9,2.9,2.9,4.3l1.4,2.4l1,1l1,1l1,1l1,1l1,1l1,1l1,0.5l0.5,0.5l0.5,0.5l0.5,0.5h0.5h0.5h0.5h0.5h0.5h0.5h0.5h0.5h0.5h1h1
			c0.5,0,1,0,1,0c0.5,0,1,0,1,0s0.5,0,1,0h0.5h0.5h0.5h0.5c0.5,0,0.5-0.5,1-0.5c0.5,0,1-0.5,1-0.5s1-0.5,1.4-1c-0.5,0.5-0.5,1-1,1.4
			c-0.5,0.5-0.5,1-0.5,1c0,0.5-0.5,0.5-0.5,1v0.5v0.5v0.5v0.5c0,0.5,0,0.5,0,1s0,0.5,0,1c0,0.5,0,1,0,1v1v1v0.5v0.5v0.5v0.5v0.5v0.5
			v0.5l0.5,0.5l0.5,0.5l0.5,0.5l0.5,0.5l0.5,0.5l0.5,1l1,1l1,1l1,1l1,1l1,1l1,1l1.9,1.4c1.4,1,2.9,1.9,4.3,2.9c1,0.5,1.4,1,1.9,1.4
			c0.5,0.5,1.4,1,1.9,1.4l1,0.5l1,0.5l1,0.5l1,0.5l0.5,1l0.5,1l0.5,0.5l0.5,0.5l0.5,0.5v0.5l0.5,0.5l0.5,0.5l0.5,0.5l0.5,0.5
			l0.5,0.5l0.5,0.5l0.5,0.5l0.5,0.5l0.5,0.5l0.5,0.5h0.5h0.5h0.5h0.5h0.5h0.5h0.5h0.5h0.5l0,0l0,0l0,0l0,0l0,0l0,0l0,0l0,0l0,0v-0.5
			V443c0,0,0-0.5,0.5-0.5c0.5,0,0-0.5,0.5-1c0.5-0.5,0-0.5,0.5-1c0-0.5,0-0.5,0-1s0-1,0-1c0-0.5,0-1,0-1s0-1,0-1.4c0-0.5,0-1,0-1.4
			c0-0.5,0-1,0-1.4c0-0.5,0-1,0-1.9c0-0.5,0-1,0-1.9v-1v-1v-1v-0.5v-0.5v-0.5v-0.5l-0.5-0.5l-0.5-0.5l-0.5-0.5l-0.5-0.5l-0.5-0.5
			l-0.5-0.5l-0.5-0.5l-0.5-0.5l-0.5-0.5l-0.5-0.5l-0.5-0.5l-0.5-0.5l-0.5-0.5l-1-0.5l-1-0.5l-1-0.5l-1-0.5l-1-0.5l-1-0.5
			c-1.4-0.5-2.9-0.5-4.3-1c-1,0-1.4-0.5-1.9-0.5h-1c-0.5,0-0.5,0-1-0.5c-0.5,0-0.5,0-1-0.5c-0.5,0-0.5,0-1-0.5h-0.5h-0.5h-0.5h-0.5
			h-0.5l-0.5-0.5v-0.5v-0.5v-0.5v-0.5V410v-0.5V409v-0.5v-0.5v-0.5v-0.5v-0.5v-0.5l0.5-0.5h0.5h0.5h0.5h0.5h0.5h0.5h0.5h0.5
			c0.5,0,0.5,0,1,0c0.5,0,0.5,0,1,0s1.4,0,1.9,0c1,0,1.4,0,2.4,0s1.4,0,2.4,0h1h1l1-0.5l1-0.5h0.5h0.5l0.5-0.5l0.5-0.5l0.5-0.5
			l0.5-0.5l0.5-0.5l0.5-0.5l0.5-0.5l0.5-0.5l0.5-0.5l0.5-0.5l0.5-0.5l0.5-1l0.5-1l0.5-1l0.5-1l0.5-1v-1c0-0.5,0-0.5,0-1
			c0-0.5,0-1,0-1c0-0.5,0-1,0-1c0-0.5,0-1,0-1c0-0.5,0-1,0-1.4c0-0.5,0-1,0-1.4c0-0.5,0-1,0-1.4c0-0.5,0-1,0-1.9v-1.9v-1v-1v-1v-1
			c0-0.5,0-0.5-0.5-1v-0.5V376v-0.5H554.1L554.1,375.5L554.1,375.5L554.1,375.5z"/>
		<path class="st1" d="M377.9,464.6L377.9,464.6v1v0.5v0.5v0.5v0.5l0.5,1l0.5,1l0.5,1c0,0.5,0.5,0.5,0.5,1l0.5,0.5l76.6,76.6
			l0.5,0.5c0,0,0.5,0.5,1,0.5l1,0.5l1,0.5l1,0.5h0.5h0.5h0.5h0.5h1.4h0.5h0.5h0.5h0.5h0.5h0.5h0.5l1-0.5l1-0.5l1-0.5
			c0.5,0,0.5-0.5,1-0.5s0.5-0.5,0.5-0.5l76.6-76.6l0.5-0.5c0,0,0.5-0.5,0.5-1l0.5-1l0.5-1l0.5-1V467v-0.5V466v-0.5v-0.5v-0.5v-0.5
			v-0.5v-0.5v-0.5v-0.5v-0.5l-0.5-1l-0.5-1l-0.5-1c0-0.5-0.5-0.5-0.5-1l-0.5-0.5l-76.6-76.6l-0.5-0.5c0,0-0.5-0.5-1-0.5l-1.4-0.5
			l-1-0.5l-1-0.5H467h-0.5H466h-0.5h-0.5h-0.5h0h-0.5h-0.5h-0.5h-0.5h-0.5l-1,0.5l-1,0.5l-1,0.5c-0.5,0-0.5,0.5-1,0.5
			s-0.5,0.5-0.5,0.5l-76.6,76.6l-0.5,0.5c0,0-0.5,0.5-0.5,1l-0.5,1l-0.5,1l-1,1.4v0.5v0.5v0.5v0.5L377.9,464.6L377.9,464.6z"/>
		<polygon class="st0" points="413.3,464.6 413.3,464.1 413.8,463.6 413.8,463.2 413.8,462.7 414.3,462.2 414.3,461.7 414.8,461.7 
			414.8,461.2 428.7,447.3 429.1,446.9 429.6,446.9 430.1,446.4 430.6,445.9 431.1,445.4 431.5,445.4 432,445 432.5,445 433,444.5 
			433.5,444.5 433.9,444.5 434.4,444 434.9,444 435.9,444 436.8,444 438.2,444 439.2,444 440.2,444 441.6,444.5 442.6,444.5 
			444,445 445,445.4 445.9,445.9 445.4,445 445,443.5 444.5,442.6 444.5,441.1 444,440.2 444,439.2 444,437.8 444,436.8 444,435.4 
			444.5,434.9 444.5,434.4 444.5,433.9 444.5,433.5 445,433 445,432 445.4,431.5 445.4,431.1 445.9,430.6 445.9,430.1 446.4,429.6 
			446.9,429.1 447.3,428.7 447.8,428.7 461.2,414.8 461.7,414.3 462.2,414.3 462.7,413.8 463.2,413.8 463.6,413.3 464.1,413.3 
			464.6,413.3 465.1,413.3 465.5,413.3 466,413.3 466.5,413.3 467,413.8 467.5,413.8 467.9,414.3 468.4,414.3 468.4,414.8 
			482.3,428.7 482.8,428.7 483.3,429.1 483.3,429.6 483.7,430.1 484.2,430.6 484.2,431.1 484.7,431.5 484.7,432 485.2,433 
			485.2,433.5 485.2,433.9 485.7,434.4 485.7,434.9 485.7,435.4 485.7,436.8 486.1,437.8 485.7,439.2 485.7,440.2 485.7,441.1 
			485.2,442.6 484.7,443.5 484.2,445 483.7,445.9 484.7,445.4 486.1,445 487.1,444.5 488.5,444.5 489.5,444 490.9,444 491.9,444 
			492.8,444 494.3,444 494.8,444 495.2,444 495.7,444.5 496.2,444.5 497.2,444.5 497.6,445 498.1,445 498.6,445.4 499.1,445.4 
			499.5,445.9 500,446.4 500.5,446.9 501,446.9 501.5,447.3 514.9,461.2 515.4,461.7 515.8,461.7 515.8,462.2 515.8,462.7 
			516.3,463.2 516.3,463.6 516.3,464.1 516.3,464.6 516.3,465.1 516.3,465.5 516.3,466 515.8,466.5 515.8,467 515.8,467.5 
			515.4,467.9 514.9,468.4 501.5,482.3 501,482.8 500.5,482.8 500,483.3 499.5,483.7 499.1,483.7 498.6,484.2 498.1,484.2 
			497.6,484.7 497.2,484.7 496.2,485.2 495.7,485.2 495.2,485.2 494.8,485.7 494.3,485.7 492.8,485.7 491.9,485.7 490.9,485.7 
			489.5,485.7 488.5,485.2 487.1,485.2 486.1,484.7 484.7,484.2 483.7,483.7 484.2,484.7 484.7,485.7 485.2,487.1 485.7,488.1 
			485.7,489.5 485.7,490.4 486.1,491.9 485.7,492.8 485.7,493.8 485.7,494.8 485.7,495.2 485.2,495.7 485.2,496.2 485.2,496.7 
			484.7,497.2 484.7,497.6 484.2,498.1 484.2,498.6 483.7,499.1 483.3,499.5 483.3,500 482.8,500.5 482.3,501 468.4,514.9 
			468.4,515.4 467.9,515.4 467.5,515.8 467,515.8 466.5,515.8 466,516.3 465.5,516.3 465.1,516.3 464.6,516.3 464.1,516.3 
			463.6,515.8 463.2,515.8 462.7,515.8 462.2,515.4 461.7,515.4 461.2,514.9 447.8,501 447.3,500.5 446.9,500 446.4,499.5 
			445.9,499.1 445.9,498.6 445.4,498.1 445.4,497.6 445,497.2 445,496.7 444.5,496.2 444.5,495.7 444.5,495.2 444.5,494.8 
			444,493.8 444,492.8 444,491.9 444,490.4 444,489.5 444.5,488.1 444.5,487.1 445,485.7 445.4,484.7 445.9,483.7 445,484.2 
			444,484.7 442.6,485.2 441.6,485.2 440.2,485.7 439.2,485.7 438.2,485.7 436.8,485.7 435.9,485.7 434.9,485.7 434.4,485.2 
			433.9,485.2 433.5,485.2 433,484.7 432.5,484.7 432,484.2 431.5,484.2 431.1,483.7 430.6,483.7 430.1,483.3 429.6,482.8 
			429.1,482.8 428.7,482.3 414.8,468.4 414.8,467.9 414.3,467.5 414.3,467 413.8,466.5 413.8,466 413.8,465.5 413.3,465.1 		"/>
		<path class="st2" d="M433.5,464.6L433.5,464.6v-0.5v-0.5v-0.5v-0.5v-0.5v-0.5v-0.5l0,0l0,0l0.5-0.5l0.5-0.5l0.5-0.5l0.5-0.5l1-0.5
			l1-0.5l1-0.5h1h1h1h1h0.5h0.5h0.5h0.5h1l1,0.5l1,0.5c0.5,0,0.5,0.5,1,0.5c0.5,0,0.5,0.5,1,0.5s0.5,0.5,1,0.5l1.4,1
			c0.5,0,0.5,0.5,1,0.5l1,0.5h0.5h0.5h0.5h0.5c0.5,0,0.5,0,1,0s1,0,1,0c0.5,0,1,0,1,0c0.5,0,1,0,1.4,0h0.5h0.5h0.5h0.5h0.5h0.5h0.5
			h0.5l0.5-0.5v-0.5v-0.5v-0.5v-0.5v-0.5v-0.5v-0.5c0-0.5,0-1,0-1.4c0-0.5,0-1,0-1c0-0.5,0-1,0-1c0-0.5,0-0.5-0.5-1v-0.5v-0.5v-0.5
			v-0.5l-0.5-1c0-0.5-0.5-0.5-0.5-1l-1-1.4c0,0-0.5-0.5-0.5-1s-0.5-0.5-0.5-1s-0.5-0.5-0.5-1l0,1l-0.5-1l-0.5-1v-0.5V444v-0.5V443
			v-1v-1v-1l0.5-1l0.5-1l0.5-1l0.5-1l0.5-0.5l0.5-0.5l0.5-0.5l0.5-0.5h0.5h0.5h0.5h0.5h0.5h0.5h0.5h-1.4h0.5h0.5h0.5h0.5h0.5h0.5
			h0.5h0.5h0.5h0.5h0.5h0.5l0.5,0.5l0.5,0.5l0.5,0.5l0.5,0.5l0.5,1l0.5,1l0.5,1l0.5,1v1v1v1v0.5v0.5v0.5v0.5l-0.5,1l-0.5,1l-0.5,1
			c0,0.5-0.5,0.5-0.5,1c0,0.5-0.5,0.5-0.5,1c0,0-0.5,0.5-0.5,1l-1,1.4c0,0.5-0.5,0.5-0.5,1l-0.5,1v0.5v0.5v0.5v0.5v0.5v0.5
			c0,0.5,0,1,0,1c0,0.5,0,1,0,1c0,0.5,0,1,0,1.4v0.5v0.5v0.5v0.5v0.5v0.5l0.5,0.5l0.5,0.5h0.5h0.5h0.5h0.5h0.5h0.5h0.5h0.5
			c0.5,0,1,0,1.4,0c0.5,0,1,0,1,0h1c0.5,0,0.5,0,1,0h0.5h0.5h0.5h0.5l1-0.5c0.5,0,0.5-0.5,1-0.5l1.4-1c0,0,0.5-0.5,1-0.5
			s0.5-0.5,1-0.5s0.5-0.5,1-0.5l1-0.5l1-0.5h1h0.5h0.5h0.5h0.5h1h1h1h1l1,0.5l1,0.5l1,0.5l0.5,0.5l0.5,0.5l0.5,0.5l0.5,0.5l0,0l0,0
			v0.5v0.5v0.5v0.5v0.5v0.5v0.5v-1.9v0.5v0.5v0.5v0.5v0.5v0.5v0.5v0.5l0,0l0,0l-0.5,0.5l-0.5,0.5l-0.5,0.5l-0.5,0.5l-1,0.5l-1,0.5
			l-1,0.5h-1h-1h-1h-1h-0.5h-0.5H490h-0.5h-1l-1-0.5l-1-0.5c-0.5,0-0.5-0.5-1-0.5s-0.5-0.5-1-0.5s-0.5-0.5-1-0.5l-1.4-1
			c-0.5,0-0.5-0.5-1-0.5l-1-0.5h-0.5h-0.5H479h-0.5c-0.5,0-0.5,0-1,0c-0.5,0-1,0-1,0c-0.5,0-1,0-1,0c-0.5,0-1,0-1.4,0h-0.5h-0.5
			h-0.5h-0.5h-0.5h-0.5h-0.5h-0.5l-0.5,0.5l-0.5,0.5v0.5v0.5v0.5v0.5v0.5v0.5c0,0.5,0,1,0,1.4c0,0.5,0,1,0,1c0,0.5,0,1,0,1v0.5v0.5
			v0.5v0.5v0.5v0.5l0.5,0.5l0.5,0.5c0,0.5,0.5,0.5,0.5,1l1,1.4c0,0,0.5,0.5,0.5,1s0.5,0.5,0.5,1c0,0.5,0.5,0.5,0.5,1l0.5,1l0.5,1
			l0.5,1v0.5v0.5v0.5v0.5v1v1v1l-0.5,1l-0.5,1l-0.5,1l-0.5,1l-0.5,0.5l-0.5,0.5l-0.5,0.5l-0.5,0.5h-0.5h-0.5h-0.5h-0.5h-0.5h-0.5
			h-0.5H467h-0.5H466h-1.4l0,0h-0.5h-0.5h-0.5h-0.5h-0.5h-0.5h-0.5h-0.5l-0.5-0.5l-0.5-0.5l-0.5-0.5l-0.5-0.5l-0.5-1l-0.5-1l-0.5-1
			l-0.5-1v-1v-1v-1v-0.5v-0.5v-0.5v-0.5l0.5-1l0.5-1l0.5-1c0-0.5,0.5-0.5,0.5-1c0-0.5,0.5-0.5,0.5-1c0,0,0.5-0.5,0.5-1l1-1.4
			c0-0.5,0.5-0.5,0.5-1l0.5-1V477v-0.5v-0.5v-0.5c0-0.5,0-0.5,0.5-1c0-0.5,0-1,0-1c0-0.5,0-1,0-1c0-0.5,0-1,0-1.4v-0.5v-0.5v-0.5
			v-0.5v-0.5v-0.5v-0.5l-0.5-0.5h-0.5h-0.5h-0.5h-0.5h-0.5h-0.5h-0.5h-0.5c-0.5,0-1,0-1.4,0c-0.5,0-1,0-1,0h-1c-0.5,0-0.5,0-1,0
			h-0.5h-0.5h-0.5h-0.5l-1,0.5c-0.5,0-0.5,0.5-1,0.5l-1.4,1c0,0-0.5,0.5-1,0.5s-0.5,0.5-1,0.5s-0.5,0.5-1,0.5l-1,0.5l-1,0.5h-1h-0.5
			h-0.5h-0.5h-0.5h-1h-1h-1h-1l-1-0.5l-1-0.5l1.9-1.4l-1-0.5l-0.5-0.5l-0.5-0.5l-0.5-0.5l0,0l0,0V467v-0.5V466v-0.5v-0.5v-0.5
			L433.5,464.6L433.5,464.6L433.5,464.6z"/>
	</g>
	<g>
		<path class="st0" d="M180.6,375.5L180.6,375.5L180.6,375.5l0.5,1v0.5v0.5v0.5c0,0,0,0.5,0,1v1v1v1v1v1.9c0,0.5,0,1.4,0,1.9
			s0,1,0,1.4c0,0.5,0,1,0,1.4c0,0.5,0,1,0,1.4c0,0.5,0,1,0,1c0,0.5,0,1,0,1c0,0.5,0,1,0,1c0,0.5,0,0.5,0,1v1v1v1v0l-0.5,1l-0.5,1
			l-0.5,0.5l-0.5,0.5l-0.5,0.5l-0.5,0.5l-0.5,0.5l0.5,0.5h-0.5l-0.5,0.5l-0.5,0.5l-0.5,0.5l-0.5,0.5h-0.5h-0.5l-1,0.5l-1.4,0.5h-1
			h-1c-1,0-1.4,0-2.4,0c-1,0-1.4,0-2.4,0s-1.4,0-1.9,0c-0.5,0-0.5,0-1,0s-0.5,0-1,0h-0.5H161h-0.5H160h-0.5H159h-0.5l0,0v0.5v0.5
			v0.5v0.5v0.5v0.5v0.5v0.5v0.5v2.4v0.5v0.5v0.5v0.5v0.5l0,0h0.5h0.5h0.5h0.5c0,0,0.5,0,1,0.5c0.5,0.5,0.5,0,1,0.5
			c0.5,0,0.5,0,1,0.5h1c0.5,0,1.4,0.5,1.9,0.5c1.4,0.5,2.9,0.5,4.3,1l1,0.5l1,0.5l1,0.5l1,0.5l1,0.5l1,0.5l0.5,0.5l0.5,0.5l0.5,0.5
			l0.5,0.5l0.5,0.5l0.5,0.5l0.5,0.5l0.5,0.5l0.5,0.5l0.5,0.5l0.5,0.5v0.5v0.5v0.5v0.5v0.5v0.5v1v1v1c0,0.5,0,1.4,0,1.9
			c0,0.5,0,1,0,1.9c0,0.5,0,1,0,1.4c0,0.5,0,1,0,1.4c0,0.5,0,1,0,1.4s0,1,0,1c0,0.5,0,1,0,1s0,0.5,0,1s0,0.5,0,1s0,0.5-0.5,1
			c-0.5,0.5,0,0.5-0.5,0.5v0.5v0.5l0,0l0,0l0,0l0,0l0,0l0,0l0,0l0,0l0,0l0,0l0,0l0,0l0,0l0,0l0,0l0,0h-0.5h-0.5l-0.5-0.5l-0.5-0.5
			l-0.5-0.5l-0.5-0.5l-0.5-0.5l-0.5-0.5l-0.5-0.5l-0.5-0.5l-0.5-0.5v-0.5v-0.5v-0.5v-0.5l-0.5-0.5l-0.5-1l-0.5-1l-1-0.5l-3.4-0.5
			l-1-0.5l-1-0.5c-0.5-0.5-1.4-1-1.9-1.4c-1-0.5-1.4-1-2.4-1.4c-1.4-1-2.9-1.9-4.3-2.9l-2.4-1.4l-1-1l-1-0.5l-1-1l-1-1l-1-1l-1-1
			l-0.5-1l0,0l-0.5-0.5l-0.5-0.5V420v-0.5v-0.5v-0.5v-0.5v-0.5v-0.5v-0.5v-0.5v-1v-1c0-0.5,0-1,0-1c0-0.5,0-1,0-1c0-0.5,0-0.5,0-1
			v-0.5v-0.5V410v-0.5c0-0.5,0.5-0.5,0.5-1s0.5-1,0.5-1c0-0.5,0.5-1,1-1.4c-0.5,0.5-1,0.5-1.4,1c-0.5,0-1,0.5-1,0.5
			c-0.5,0-0.5,0.5-1,0.5h-0.5h-0.5h-0.5h-0.5c-0.5,0-0.5,0-1,0c-0.5,0-0.5,0-1,0c-0.5,0-1,0-1,0h-0.5h-0.5h-0.5h-0.5h-0.5h-0.5h-0.5
			h-0.5h-0.5h-0.5H138l-0.5-0.5l-0.5-0.5l-0.5-0.5l-1-0.5l-1-1l-1-1l-2.9-1.9l-1-1l-0.5-1l-1-1l-1.4-1.9c-1-1.4-1.9-2.9-2.9-4.3
			c-0.5-1-1-1.4-1.4-2.4c-0.5-0.5-1-1.4-1.4-1.9l-0.5-1l-0.5-1l-0.5-1l-0.5-1l-0.5-0.5l-0.5-0.5l-0.5-0.5h-0.5h-0.5h-0.5h-0.5l-1-1
			l-0.5-0.5l-0.5-0.5l-0.5-0.5l-0.5-0.5l-0.5-0.5l-0.5-0.5l-0.5-0.5l-0.5-0.5v-0.5v-0.5l0,0l0,0l0,0l0,0l0,0l0,0l0,0l0,0l0,0l0,0
			l0,0l0,0l0,0l0,0l0,0l0,0h0.5h0.5c0,0,0.5,0,0.5-0.5s0.5,0,1-0.5s0.5,0,1,0c0.5,0,0.5,0,1,0s0.5,0,1,0c0.5,0,1,0,1,0s1,0,1.4,0
			c0.5,0,1,0,1.4,0c0.5,0,1,0,1.4,0c0.5,0,1,0,1.9,0s1,0,1.9,0h1h1h0.5h0.5h0.5h0.5h0.5h0.5h0.5l0.5,0.5l0.5,0.5l0.5,0.5l0.5,0.5
			l0.5,0.5l0.5,0.5l0.5,0.5l0.5,0.5l0.5,0.5l0.5,0.5l0.5,0.5l0.5,1l0.5,1l0.5,1l0.5,1l0.5,1l0.5,1c0.5,1.4,0.5,2.9,1,4.3
			c0,1,0.5,1.4,0.5,1.9v1c0,0.5,0,0.5,0.5,1c0,0.5,0,0.5,0.5,1c0,0,0,0.5,0.5,1v0.5v0.5v0.5v0.5l0,0h0.5h0.5h0.5h0.5h0.5h0.5h0.5
			h0.5h0.5h0.5h0.5h0.5h0.5h0.5h0.5l0,0v-0.5V399v-0.5V398v-0.5v-0.5v-0.5c0-0.5,0-0.5,0-1s0-0.5,0-1s0-1.4,0-1.9c0-0.5,0-1.4,0-2.4
			s0-1.4,0-2.4v-1v-1l0.5-1l0.5-1v-0.5v-0.5l0.5-0.5l0.5-0.5l0.5-0.5l0.5-0.5l0.5-0.5l0.5-0.5l0.5-0.5l0.5-0.5l0.5-0.5l0.5-0.5
			l0.5-0.5l1-0.5l1-0.5l1-0.5h1h1h1c0.5,0,0.5,0,1,0c0.5,0,1,0,1,0c0.5,0,1,0,1,0c0.5,0,1,0,1,0c0.5,0,1,0,1.4,0s1,0,1.4,0
			c0.5,0,1,0,1.4,0s1,0,1.9,0h1.9h1h1h1h1c0.5,0,0.5,0,1,0h0.5h0.5h0.5h0.5L180.6,375.5L180.6,375.5L180.6,375.5z"/>
		<path class="st0" d="M2,375.5L2,375.5L2,375.5l-0.5,1v0.5v0.5v0.5c0,0,0,0.5,0,1v1v1v1v1v1.9c0,0.5,0,1.4,0,1.9s0,1,0,1.4
			c0,0.5,0,1,0,1.4c0,0.5,0,1,0,1.4c0,0.5,0,1,0,1c0,0.5,0,1,0,1c0,0.5,0,1,0,1c0,0.5,0,0.5,0,1v1v1v1v0l0.5,1l0.5,1l0.5,0.5
			l0.5,0.5l0.5,0.5l0.5,0.5l0.5,0.5l-0.5,0.5h0.5l0.5,0.5l0.5,0.5l0.5,0.5l0.5,0.5h0.5h0.5l1,0.5l1,0.5h1h1c1,0,1.4,0,2.4,0
			s1.4,0,2.4,0s1.4,0,1.9,0c0.5,0,0.5,0,1,0s0.5,0,1,0h0.5h0.5h0.5h0.5h0.5H23h0.5H24l0,2.9v0.5v0.5v0.5v0.5v0.5v0.5v0.5v0.5v0v0.5
			v0.5v0.5v0.5v-0.5h-0.5H23h-0.5h-0.5h-0.5c-0.5,0-0.5,0-1,0.5c-0.5,0.5-0.5,0-1,0.5c-0.5,0-0.5,0-1,0.5h-1c-0.5,0-1.4,0.5-1.9,0.5
			c-1.4,0.5-2.9,0.5-4.3,1l-1,0.5l-1,0.5l-1,0.5l-1,0.5l-1,0.5l-1,0.5l-0.5,0.5L4.8,420l-0.5,0.5L3.9,421l-0.5,0.5l0,0L2.9,422
			l-0.5,0.5L2,422.9l-0.5,0.5L1,423.9l-0.5,0.5v0.5v0.5v0.5v0.5v0.5v1v1v1c0,0.5,0,1.4,0,1.9c0,0.5,0,1,0,1.9c0,0.5,0,1,0,1.4
			c0,0.5,0,1,0,1.4c0,0.5,0,1,0,1.4c0,0.5,0,1,0,1c0,0.5,0,1,0,1s0,0.5,0,1s0,0.5,0,1s0,0.5,0.5,1s0,0.5,0.5,0.5v0.5v0.5l0,0l0,0
			l0,0l0,0l0,0l0,0l0,0l0,0l0,0H2l0,0h0.5l0,0h2.4l0,0l0,0h0.5h0.5l0.5-0.5l0.5-0.5l0.5-0.5l0.5-0.5l0.5-0.5l0.5-0.5l0.5-0.5
			l0.5-0.5l0,1v-0.5v-0.5v-0.5v-0.5l0.5-0.5l0.5-1l0.5-1l1-0.5l1.4-0.5l1-0.5l1-0.5c0.5-0.5,1.4-1,1.9-1.4c1-0.5,1.4-1,1.9-1.4
			c1.4-1,2.9-1.9,4.8-2.4l1.9-1.4l1-1l1-1l1-1l1-1l1-1l1-1l0.5-1l0.5,0l0.5-0.5l0.5-0.5L34,420l-0.5-1v-0.5v-0.5v-0.5v-0.5v-0.5
			v-0.5v-0.5v-1v-1c0-0.5,0-1,0-1c0-0.5,0-1,0-1c0-0.5,0-0.5,0-1v-0.5V410v-0.5V409c0-0.5-0.5-0.5-0.5-1c0-0.5-0.5-1-0.5-1
			c-0.5-0.5-0.5-1-1-1.4c0.5,0.5,1,0.5,1.4,1c0.5,0,1,0.5,1,0.5c0.5,0,0.5,0.5,1,0.5h0.5H36h0.5h0.5c0.5,0,0.5,0,1,0s0.5,0,1,0
			s1,0,1,0h0.5h0.5h0.5h0.5h0.5h0.5h0.5h0.5h0.5h0.5h0.5l0.5-0.5l0.5-0.5l0.5-0.5l1-0.5l1-1l1-1l1-1l1-1l1-1l1-1l1.4-2.4
			c1-1.4,1.9-2.9,2.9-4.3c0.5-1,1-1.4,1.4-2.4c0.5-0.5,1-1.4,1.4-1.9l0.5-1l0.5-1l0.5-1l0.5-1l0.5-0.5l0.5-0.5l0.5-0.5h0.5h0.5h0.5
			h0.5l0.5-0.5l0.5-0.5l0.5-0.5l0.5-0.5l0.5-0.5l0.5-0.5l0.5-0.5l0.5-0.5l0.5-0.5v-0.5v-0.5l0,0l0,0l0,0l0,0l0,0l0,0l0,0l0,0l0,0
			l0,0l0,0l0,0l0,0l0,0h-0.5H69h-0.5H68c0,0-0.5,0-0.5-0.5l-1-0.5c-0.5,0-0.5,0-1,0c-0.5,0-0.5,0-1,0c-0.5,0-0.5,0-1,0s-1,0-1,0
			s-1,0-1.4,0c-0.5,0-1,0-1.4,0c-0.5,0-1,0-1.4,0c-0.5,0-1,0-1.9,0s-1,0-1.9,0h-1h-1h-0.5h-0.5h-0.5h-0.5h-0.5h-0.5h-0.5l-0.5,0.5
			l-0.5,0.5l-0.5,0.5l-0.5,0.5l0.5-2.9l-0.5,0.5l-0.5,0.5l-0.5,0.5l0,0.5l-0.5,0.5l-0.5,0.5l-0.5,1l-0.5,1l-0.5,1l-0.5,1l-0.5,1
			l-0.5,1c-0.5,1.4-0.5,2.9-1,4.3c0,1-0.5,1.4-0.5,1.9l-0.5,1c0,0.5,0,0.5-0.5,1c-0.5,0.5,0,0.5-0.5,1c-0.5,0.5-0.5,0.5-0.5,1v0.5
			v0.5l-0.5,0.5l-0.5,0.5h-0.5h-0.5h-0.5h-0.5H36h-0.5h2.4h-0.5h-0.5h-0.5H36h-0.5H35h-0.5H34h-0.5h-0.5l0.5-0.5v-0.5v-0.5v-0.5
			v-0.5v-0.5v-0.5c0-0.5,0-0.5,0-1s0-0.5,0-1c0-0.5,0-1.4,0-1.9c0-1,0-1.4,0-2.4s0-1.4-0.5-2.4v-1l-0.5-1l-0.5-1l-0.5-1l-0.5-0.5
			l-0.5-0.5l-0.5-0.5l-0.5-0.5l-0.5-0.5l-0.5-0.5l-0.5-0.5l-0.5-0.5l-0.5-0.5l-0.5-0.5l-0.5-0.5l-0.5-0.5l-0.5-0.5l-1-0.5l-1-0.5
			l-1-0.5h-1h-1h-1c-0.5,0-0.5,0-1,0c-0.5,0-0.5,0-1,0s-1,0-1,0c-0.5,0-1,0-1,0c-0.5,0-1,0-1.4,0c-0.5,0-1,0-1.4,0c-0.5,0-1,0-1.4,0
			c-0.5,0-1,0-1.9,0H7.7h-1h-1h-1h-1c-0.5,0-0.5,0-1,0H2.4H2H1.5L2,375.5L2,375.5L2,375.5L2,375.5z"/>
		<path class="st0" d="M2,554.1L2,554.1l-0.5-0.5v-0.5v-0.5v-0.5v-0.5c0,0,0-0.5,0-1v-1v-1v-1v-1V545c0-0.5,0-1.4,0-1.9s0-1,0-1.4
			c0-0.5,0-1,0-1.4c0-0.5,0-1,0-1.4c0-0.5,0-1,0-1c0-0.5,0-1,0-1c0-0.5,0-1,0-1c0-0.5,0-0.5,0-1v-1v-1v-1l0.5-1l0.5-1l0.5-1l0.5-0.5
			l0.5-0.5l0.5-0.5l0.5-0.5l0.5-0.5l0.5-0.5l0.5-0.5l0.5-0.5l0.5-0.5l0.5-0.5l0.5-0.5h0.5h0.5l1-0.5l1-0.5h1h1c1,0,1.4,0,2.4,0
			s1.4,0,2.4,0s1.4,0,1.9,0s0.5,0,1,0c0.5,0,0.5,0,1,0h0.5h0.5H23h0.5H24h0.5h0.5h0.5l0.5-0.5v-0.5v-0.5v-0.5v-0.5v-0.5v-0.5v-0.5
			v-0.5v-0.5v-0.5v-0.5v-0.5v-0.5l-1.9,0h-0.5H23h-0.5h-0.5h-0.5c-0.5,0-0.5,0-1-0.5c-0.5-0.5-0.5,0-1-0.5c-0.5,0-0.5,0-1-0.5h-1
			c-0.5,0-1.4-0.5-1.9-0.5c-1.4-0.5-2.9-0.5-4.3-1l-0.5-1l-1-0.5l-1-0.5l-1-0.5l-1-0.5l-1-0.5l-0.5-0.5l-1,0l-0.5-0.5l-0.5-0.5
			l-0.5-0.5l-0.5-0.5l0,0H2.4L2,507.2l-0.5-0.5L1,506.3l-0.5-0.5v-0.5v-0.5v-0.5v-0.5v-0.5v-1v-1v-1c0-0.5,0-1.4,0-1.9s0-1,0-1.9
			c0-0.5,0-1,0-1.4c0-0.5,0-1,0-1.4c0-0.5,0-1,0-1.4c0-0.5,0-1,0-1c0-0.5,0-1,0-1s0-0.5,0-1s0-0.5,0-1s0-0.5,0.5-1
			c0.5-0.5,0-0.5,0.5-0.5v-0.5v-0.5l0,0l0,0l0,0l0,0l0,0l0,0l0,0l0,0l0,0H2l0,0h0.5l0,0h2.4l0,0l0,0h0.5h0.5l0.5,0.5l0.5,0.5
			l0.5,0.5l0.5,0.5l0.5,0.5l0.5,0.5l0.5,0.5l0.5,0.5l0.5,0.5v0.5v0.5v0.5v0.5l0.5,0.5l0.5,1l0.5,1l1,0.5l1,0.5l1,0.5l1,0.5
			c0.5,0.5,1.4,1,1.9,1.4c1,0.5,1.4,1,1.9,1.4c1.4,1,2.9,1.9,4.3,2.9l1.9,1.4l1,1l1,1l1,1l1,1l1,1l1,1l0.5,1l0.5,0.5l0.5,0.5
			l0.5,0.5l0.5,0.5L34,513v0.5v0.5v0.5v0.5v0.5v0.5v0.5v1v1c0,0.5,0,1,0,1c0,0.5,0,1,0,1c0,0.5,0,0.5,0,1v0.5v0.5v0.5v0.5
			c0,0.5-0.5,0.5-0.5,1c0,0.5-0.5,1-0.5,1c-0.5,0.5-0.5,1-1,1.4c0.5-0.5,1-0.5,1.4-1c0.5,0,1-0.5,1-0.5c0.5,0,0.5-0.5,1-0.5H36h0.5
			h0.5h0.5c0.5,0,0.5,0,1,0s0.5,0,1,0s1,0,1,0h0.5h0.5h0.5h0.5h0.5h0.5h0.5h0.5h0.5h0.5h0.5l0.5,0.5l0.5,0.5l0.5,0.5l1,0.5l1,1l1,1
			l1,1l1,1l1,1l1,1l1.4,2.4c1,1.4,1.9,2.9,2.9,4.3c0.5,1,1,1.4,1.4,2.4c0.5,0.5,1,1.4,1.4,1.9l0.5,1l0.5,1l0.5,1l0.5,1l0.5,0.5
			l0.5,0.5l0.5,0.5h0.5h0.5h0.5h0.5l0.5,0.5l0.5,0.5l0.5,0.5l0.5,0.5l0.5,0.5l0.5,0.5l0.5,0.5l0.5,0.5l0.5,0.5v0.5v0.5l0,0l0,0l0,0
			l0,0l0,0l0,0l0,0l0,0l0,0l0,0l0,0l0,0l0,0l0,0H70h-0.5H69h-0.5c0,0-0.5,0-0.5,0.5c0,0.5-0.5,0-1,0.5c-0.5,0-0.5,0-1,0
			c-0.5,0-0.5,0-1,0c-0.5,0-0.5,0-1,0c-0.5,0-1,0-1,0s-1,0-1.4,0c-0.5,0-1,0-1.4,0c-0.5,0-1,0-1.4,0c-0.5,0-1,0-1.9,0s-1,0-1.9,0h-1
			h-1h-0.5h-0.5h-0.5h-0.5h-0.5h-0.5h-0.5l-0.5-0.5l-0.5-0.5l-0.5-0.5l-0.5-0.5l-0.5-0.5l-0.5-0.5l-0.5-0.5l-0.5-0.5l-0.5-0.5
			l0.5,0.5l-0.5-0.5l-0.5-1l-0.5-1l-0.5-1l0-1.4l-0.5-1l-0.5-1c-0.5-1.4-0.5-2.9-1-4.3c0-1-0.5-1.4-0.5-1.9l-0.5-1
			c0-0.5,0-0.5-0.5-1c-0.5-0.5,0-0.5-0.5-1c-0.5-0.5-0.5-0.5-0.5-1v-0.5v-0.5l-0.5-0.5l-0.5-0.5h-0.5h-0.5h-0.5h-0.5l1.4-0.5h-0.5
			l0,0h-0.5h-0.5h-0.5H36h-0.5H35h-0.5H34h-0.5h-0.5l0.5,1v0.5v0.5v0.5v0.5v0.5v0.5c0,0.5,0,0.5,0,1c0,0.5,0,0.5,0,1
			c0,0.5,0,1.4,0,1.9c0,1,0,1.4,0,2.4s0,1.4-0.5,2.4v1l-0.5,1l-0.5,1l-0.5,1l-0.5,0.5l-0.5,0.5l-0.5,0.5l-0.5,0.5l-0.5,1l-0.5,0.5
			l-0.5,0.5l-0.5,0.5l-0.5,0.5l-0.5,0.5l-0.5,0.5l-0.5,0.5l-0.5,0.5l-1,0.5l-1,0.5l-1,0.5h-1h-1h-1c-0.5,0-0.5,0-1,0
			c-0.5,0-0.5,0-1,0s-1,0-1,0c-0.5,0-1,0-1,0c-0.5,0-1,0-1.4,0c-0.5,0-1,0-1.4,0c-0.5,0-1,0-1.4,0c-0.5,0-1,0-1.9,0H7.7h-1h-1h-1h-1
			c-0.5,0-0.5,0-1,0H2.4H2H1.5L2,554.1L2,554.1L2,554.1L2,554.1z"/>
		<path class="st0" d="M180.6,554.1L180.6,554.1l0.5-0.5v-0.5v-0.5v-0.5v-0.5c0,0,0-0.5,0-1v-1v-1v-1v-1V545c0-0.5,0-1.4,0-1.9
			s0-1,0-1.4c0-0.5,0-1,0-1.4c0-0.5,0-1,0-1.4c0-0.5,0-1,0-1c0-0.5,0-1,0-1c0-0.5,0-1,0-1c0-0.5,0-0.5,0-1v-1v-1v-1l-0.5-1l-0.5-1
			l-0.5-1l-0.5-0.5l-0.5-0.5l-0.5-0.5l-0.5-0.5l-0.5-0.5l-0.5-0.5l-0.5-0.5l1,1l-0.5-0.5l-0.5-0.5l-0.5-0.5h-0.5h-0.5l-1-0.5l-1-0.5
			h-1h-1c-1,0-1.4,0-2.4,0c-1,0-1.4,0-2.4,0s-1.4,0-1.9,0c-0.5,0-0.5,0-1,0s-0.5,0-1,0h-0.5h-0.5H161h-0.5H160h-0.5H159l0,0V524
			v-0.5V523v-0.5v-0.5v-0.5v-0.5v-0.5v-0.5v-0.5v-0.5v-0.5v-0.5v-0.5v-0.5l0,0h0.5h0.5h0.5h0.5c0,0,0.5,0,1-0.5c0.5-0.5,0.5,0,1-0.5
			c0.5,0,0.5,0,1-0.5h1c0.5,0,1.4-0.5,1.9-0.5c1.4-0.5,2.9-0.5,4.3-1l1-0.5l1-0.5l1-0.5l1-0.5l1-0.5l1-0.5l0.5-0.5l0.5-0.5l0.5-0.5
			l0.5-0.5l0.5-0.5l0.5-0.5l0.5-0.5l0.5-0.5l0.5-0.5l0.5-0.5l0.5-0.5v-0.5v-0.5v-0.5v-0.5v-0.5v-0.5v-1v-1v-1c0-0.5,0-1.4,0-1.9
			c0-0.5,0-1,0-1.9c0-0.5,0-1,0-1.4c0-0.5,0-1,0-1.4c0-0.5,0-1,0-1.4s0-1,0-1c0-0.5,0-1,0-1s0-0.5,0-1s0-0.5,0-1s0-0.5-0.5-1
			c-0.5-0.5,0-0.5-0.5-0.5v-0.5v-0.5l0,0l0,0l0,0l0,0l0,0l0,0l0,0l0,0l0,0l0,0l0,0l0,0l0,0l0,0l0,0l0,0h-0.5h-0.5l-0.5,0.5l-0.5,0.5
			l-0.5,0.5l-0.5,0.5l-0.5,0.5l-0.5,0.5l-0.5,0.5l-0.5,0.5l-0.5,0.5v0.5v0.5v0.5v0.5l-0.5,0.5l-0.5,1l-0.5,1l-1,0.5l-1,0.5l-1,0.5
			l-1,0.5c-0.5,0.5-1.4,1-1.9,1.4c-1,0.5-1.4,1-2.4,1.4c-1.4,1-2.9,1.9-4.3,2.9l-2.4,1.4l-1,1l-1,1l-1,1l-1,1l-1,1l-1,1l-0.5,1
			l-0.5,0.5l-0.5,0.5l-0.5,0.5v0.5v0.5v0.5v0.5v0.5v0.5v0.5v0.5v0.5v1v1c0,0.5,0,1,0,1c0,0.5,0,1,0,1c0,0.5,0,0.5,0,1v0.5v0.5v0.5
			v0.5c0,0.5,0.5,0.5,0.5,1c0,0.5,0.5,1,0.5,1c0,0.5,0.5,1,1,1.4c-0.5-0.5-1-0.5-1.4-1c-0.5,0-1-0.5-1-0.5c-0.5,0-0.5-0.5-1-0.5
			h-0.5h-0.5H149h-0.5c-0.5,0-0.5,0-1,0s-0.5,0-1,0c-0.5,0-1,0-1,0h-0.5h-0.5h-0.5h-0.5h-0.5h-0.5h-0.5h-0.5h-0.5h-0.5h-0.5
			l-0.5,0.5l-0.5,0.5l-0.5,0.5l-1,0.5l-1,1l-1,1l-1,1l-1,1l-1,1l-1,1l-1.4,2.4c-1,1.4-1.9,2.9-2.9,4.3c-0.5,1-1,1.4-1.4,2.4
			c-0.5,0.5-1,1.4-1.4,1.9l-0.5,1l-0.5,1l-0.5,1l-0.5,1l-0.5,0.5l-0.5,0.5l-0.5,0.5h-0.5h-0.5h-0.5h-0.5l-0.5,0.5l-0.5,0.5l-0.5,0.5
			l-0.5,0.5l-0.5,0.5l-0.5,0.5l-0.5,0.5l-0.5,0.5l-0.5,0.5v0.5v0.5l0,0l0,0l0,0l0,0l0,0l0,0l0,0l0,0l0,0l0,0l0,0l0,0l0,0l0,0l0,0
			l0,0h0.5h0.5c0,0,0.5,0,0.5,0.5c0,0.5,0.5,0,1,0.5c0.5,0.5,0.5,0,1,0c0.5,0,0.5,0,1,0s0.5,0,1,0c0.5,0,1,0,1,0s1,0,1.4,0
			c0.5,0,1,0,1.4,0c0.5,0,1,0,1.4,0c0.5,0,1,0,1.9,0c1,0,1,0,1.9,0h1h1h0.5h0.5h0.5h0.5h0.5h0.5h0.5l0.5-0.5l0.5-0.5l0.5-0.5
			l0.5-0.5l0.5-0.5l0.5-0.5l0.5-0.5l0.5-0.5l0.5-0.5l0.5-0.5l0.5-0.5l0.5-1l0.5-1l0.5-1l0.5-1l0.5-1l0.5-1c0.5-1.4,0.5-2.9,1-4.3
			c0-1,0.5-1.4,0.5-1.9v-1c0-0.5,0-0.5,0.5-1c0-0.5,0-0.5,0.5-1c0,0,0-0.5,0.5-1v-0.5v-0.5v-0.5v-0.5l0,0h0.5h0.5h0.5h0.5h0.5h0.5
			h0.5h0.5h0.5h0.5h0.5h0.5h0.5h0.5h0.5l0,0v0.5v0.5v0.5v0.5v0.5v0.5v0.5c0,0.5,0,0.5,0,1c0,0.5,0,0.5,0,1c0,0.5,0,1.4,0,1.9
			c0,0.5,0,1.4,0,2.4s0,1.4,0,2.4v1v1l0.5,1l0.5,1v0.5v0.5l0.5,0.5l0.5,0.5l-1.9,1.4l0.5,0.5l0.5,0.5l0.5,0.5l0.5,0.5l0.5,0.5
			l0.5,0.5l0.5,0.5l0.5,0.5l1,0.5l1,0.5l1,0.5h1h1h1c0.5,0,0.5,0,1,0c0.5,0,1,0,1,0c0.5,0,1,0,1,0c0.5,0,1,0,1,0c0.5,0,1,0,1.4,0
			s1,0,1.4,0c0.5,0,1,0,1.4,0s1,0,1.9,0h1.9h1h1h1h1c0.5,0,0.5,0,1,0h0.5h0.5h0.5h0.5L180.6,554.1L180.6,554.1L180.6,554.1z"/>
		<path class="st1" d="M91.5,377.9L91.5,377.9h-1h-0.5h-0.5h-0.5h-0.5l-1,0.5l-1,0.5l-1,0.5c-0.5,0-0.5,0.5-1,0.5l-0.5,0.5
			L7.7,456.9l-0.5,0.5c0,0-0.5,0.5-0.5,1l-0.5,1l-0.5,1l-0.5,1v0.5v0.5v0.5v0.5v1.4v0.5v0.5v0.5v0.5v0.5v0.5v0.5l0.5,1l0.5,0.5
			l0.5,1c0,0.5,0.5,0.5,0.5,1l0.5,0.5l76.6,76.6l0.5,0.5c0,0,0.5,0.5,1,0.5l1,0.5l1,0.5l1,0.5h0.5h0.5h0.5h0.5H91h0.5H92h0.5h0.5
			h0.5h0.5h0.5l1-0.5l1-0.5l1-0.5c0.5,0,0.5-0.5,1-0.5l0.5-0.5l76.6-76.6l0.5-0.5c0,0,0.5-0.5,0.5-1l0.5-1l0.5-1l0.5-1V467v-0.5V466
			v-0.5v-0.5v-0.5v0v-0.5v-0.5v-0.5v-0.5v-0.5l-0.5-1l-0.5-1l-0.5-1c0-0.5-0.5-0.5-0.5-1l-0.5-0.5l-76.6-76.6l-0.5-0.5
			c0,0-0.5-0.5-1-0.5l-1-0.5l-1-0.5l-1-1h-0.5h-0.5h-0.5h-0.5L91.5,377.9C92,377.9,91.5,377.9,91.5,377.9z"/>
		<polygon class="st0" points="91.5,413.3 92,413.3 92.5,413.8 92.9,413.8 93.4,413.8 93.9,413.8 94.4,414.3 94.9,414.3 94.9,414.8 
			108.8,428.7 109.2,429.1 109.7,429.6 109.7,430.1 110.2,430.6 110.7,431.1 110.7,431.5 111.1,432 111.1,432.5 111.6,433 
			111.6,433.5 111.6,433.9 112.1,434.4 112.1,434.9 112.1,435.9 112.1,436.8 112.1,437.8 112.1,439.2 112.1,440.2 112.1,441.6 
			111.6,442.6 111.1,444 110.7,445 110.2,445.9 111.1,445.4 112.6,445 113.5,444.5 115,444.5 115.9,444 117.4,444 118.3,444 
			119.3,444 120.7,444 121.2,444.5 121.7,444.5 122.2,444.5 122.6,444.5 123.6,445 124.1,445 124.6,445.4 125,445.4 125.5,445.9 
			126,445.9 126.5,446.4 127,446.9 127.4,447.3 127.9,447.3 141.3,461.2 141.8,461.7 141.8,462.2 142.3,462.7 142.3,463.2 
			142.8,463.6 142.8,464.1 142.8,464.6 142.8,465.1 142.8,465.5 142.8,466 142.8,466.5 142.3,467 142.3,467.5 141.8,467.9 
			141.8,468.4 141.3,468.4 127.9,482.3 127.4,482.8 127,483.3 126.5,483.3 126,483.7 125.5,484.2 125,484.2 124.6,484.7 
			124.1,484.7 123.6,485.2 122.6,485.2 122.2,485.2 121.7,485.7 121.2,485.7 120.7,485.7 119.3,485.7 118.3,485.7 117.4,485.7 
			115.9,485.7 115,485.7 113.5,485.2 112.6,484.7 111.1,484.2 110.2,483.7 110.7,484.7 111.1,486.1 111.6,487.1 112.1,488.5 
			112.1,489.5 112.1,490.4 112.1,491.9 112.1,492.8 112.1,494.3 112.1,494.8 112.1,495.2 111.6,495.7 111.6,496.2 111.6,497.2 
			111.1,497.6 111.1,498.1 110.7,498.6 110.7,499.1 110.2,499.5 109.7,500 109.7,500.5 109.2,501 108.8,501 94.9,514.9 94.9,515.4 
			94.4,515.4 93.9,515.8 93.4,515.8 92.9,516.3 92.5,516.3 92,516.3 91.5,516.3 91,516.3 90.6,516.3 90.1,516.3 89.6,515.8 
			89.1,515.8 88.6,515.4 88.2,515.4 87.7,514.9 73.8,501 73.8,501 73.3,500.5 72.8,500 72.8,499.5 72.4,499.1 71.9,498.6 
			71.9,498.1 71.4,497.6 71.4,497.2 70.9,496.2 70.9,495.7 70.9,495.2 70.9,494.8 70.4,494.3 70.4,492.8 70.4,491.9 70.4,490.4 
			70.4,489.5 70.9,488.5 71.4,487.1 71.4,486.1 71.9,484.7 72.8,483.7 71.4,484.2 70.4,484.7 69,485.2 68,485.7 66.6,485.7 
			65.7,485.7 64.2,485.7 63.3,485.7 62.3,485.7 61.8,485.7 60.9,485.7 60.4,485.2 59.9,485.2 59.4,485.2 58.9,484.7 58.5,484.7 
			58,484.2 57.5,484.2 57,483.7 56.6,483.3 56.1,483.3 55.6,482.8 55.1,482.3 41.2,468.4 41.2,468.4 40.7,467.9 40.7,467.5 
			40.3,467 40.3,466.5 40.3,466 40.3,465.5 39.8,465.1 40.3,464.6 40.3,464.1 40.3,463.6 40.3,463.2 40.7,462.7 40.7,462.2 
			41.2,461.7 41.2,461.2 55.1,447.3 55.6,447.3 56.1,446.9 56.6,446.4 57,445.9 57.5,445.9 58,445.4 58.5,445.4 58.9,445 59.4,445 
			59.9,444.5 60.4,444.5 60.9,444.5 61.8,444.5 62.3,444 63.3,444 64.2,444 65.7,444 66.6,444 68,444.5 69,444.5 70.4,445 
			71.4,445.4 72.8,445.9 71.9,445 71.4,444 71.4,442.6 70.9,441.6 70.4,440.2 70.4,439.2 70.4,437.8 70.4,436.8 70.4,435.9 
			70.9,434.9 70.9,434.4 70.9,433.9 70.9,433.5 71.4,433 71.4,432.5 71.9,432 71.9,431.5 72.4,431.1 72.8,430.6 72.8,430.1 
			73.3,429.6 73.8,429.1 73.8,428.7 87.7,414.8 88.2,414.3 88.6,414.3 89.1,413.8 89.6,413.8 90.1,413.8 90.6,413.8 91,413.3 		"/>
		<path class="st2" d="M91.5,433L91.5,433H92h0.5h0.5h0.5h0.5h0.5h0.5l0,0l0,0l0.5,0.5l0.5,0.5l0.5,0.5l0.5,0.5l0.5,1l0.5,1l0.5,1v1
			v1v1v1v0.5v0.5v0.5v0.5v1l-0.5,1l-0.5,1c0,0.5-0.5,0.5-0.5,1s-0.5,0.5-0.5,1c0,0-0.5,0.5-0.5,1l-1,1.4c0,0.5-0.5,0.5-0.5,1l-0.5,1
			v0.5v0.5v0.5v0.5c0,0.5,0,0.5,0,1s0,1,0,1c0,0.5,0,1,0,1c0,0.5,0,1,0,1.4v0.5v0.5v0.5v0.5v0.5v0.5v0.5v0.5h0.5h0.5h0.5h0.5h0.5
			h0.5h0.5h0.5c0.5,0,1,0,1.4,0c0.5,0,1,0,1,0s0.5,0,1,0s0.5,0,1,0h0.5h0.5h0.5h0.5l1-0.5c0.5,0,0.5-0.5,1-0.5l1.4-1
			c0,0,0.5-0.5,1-0.5s0.5-0.5,1-0.5c0.5,0,0.5-0.5,1-0.5l1-0.5l1-0.5h1h0.5h0.5h0.5h0.5h0h1h1h1l1,0.5l1,0.5l0.5,0.5l0.5,0.5
			l0.5,0.5l0.5,0.5l0.5,0.5l0,0l0,0v0.5v0.5v0.5v0.5v0.5v0.5v0.5v0.5v0.5v0.5v0.5v0.5v0.5v0.5v0.5v0.5l0,0l0,0l-0.5,0.5l-0.5,0.5
			l-0.5-1l-1,0.5l-0.5,0.5l-1,0.5l-1,0.5h-1h-1h-1h-1h-0.5h-0.5h-0.5h-0.5h-1l-1-0.5l-1-0.5c-0.5,0-0.5-0.5-1-0.5
			c-0.5,0-0.5-0.5-1-0.5c0,0-0.5-0.5-1-0.5l-1.4-1c-0.5,0-0.5-0.5-1-0.5l-1-0.5H102h-0.5h-0.5h-0.5h-0.5h-0.5c-0.5,0-0.5,0-1,0
			c-0.5,0-1,0-1,0c-0.5,0-1,0-1.4,0h-0.5h-0.5h-0.5h-0.5h-0.5h-0.5h-0.5h-0.5v0.5v0.5v0.5v0.5v0.5v0.5v0.5v0.5c0,0.5,0,1,0,1.4
			c0,0.5,0,1,0,1v1c0,0.5,0,0.5,0,1v0.5v0.5v0.5v0.5l0.5,1c0,0.5,0.5,0.5,0.5,1l1,1.4c0,0,0.5,0.5,0.5,1s0.5,0.5,0.5,1
			s0.5,0.5,0.5,1l0.5,1l0.5,1v1v0.5v0.5v0.5v0.5v1v1v1v1l-0.5,1l-0.5,1l-0.5,1l-0.5,0.5l-0.5,0.5l-0.5,0.5l-0.5,0.5l0,0l0,0h-0.5
			h-0.5H92h-0.5H91h-0.5h-0.5h-0.5H91l0,0h-0.5h-0.5h-0.5h-0.5h-0.5h-0.5l0,0l0,0l-0.5-0.5l-0.5-0.5l-0.5-0.5l-0.5-0.5l-0.5-1
			l-0.5-1l-0.5-1v-1v-1v-1v-1v-0.5v-0.5v-0.5v-0.5v-1l0.5-1l0.5-1c0-0.5,0.5-0.5,0.5-1s0.5-0.5,0.5-1c0,0,0.5-0.5,0.5-1l1-1.4
			c0-0.5,0.5-0.5,0.5-1l0.5-1v-0.5v-0.5v-0.5v-0.5c0-0.5,0-0.5,0-1s0-1,0-1c0-0.5,0-1,0-1c0-0.5,0-1,0-1.4v-0.5v-0.5v-0.5v-0.5v-0.5
			v-0.5v-0.5V467h-0.5h-0.5h-0.5h-0.5h-0.5h-0.5h-0.5h-0.5c-0.5,0-1,0-1.4,0s-1,0-1,0s-0.5,0-1,0h-0.5H81h-0.5H80h-0.5h-0.5h-0.5
			h-0.5c-0.5,0-0.5,0.5-1,0.5l-1.4,1c0,0-0.5,0.5-1,0.5c-0.5,0-0.5,0.5-1,0.5s-0.5,0.5-1,0.5l-1,0.5l-1,0.5h-1h-0.5H69h-0.5H68h-1
			h-1h-1h-1l-1-0.5l-1-0.5l-0.5-0.5h0.5l-0.5-0.5l-0.5-0.5l-0.5-0.5l0,0l0,0v-0.5V467v-0.5V466v-0.5v-0.5v-0.5v-0.5v-0.5v1v-0.5
			v-0.5v-0.5v-0.5v-0.5v-0.5l0,0l0,0l0.5-0.5l0.5-0.5l0.5-0.5l0.5-0.5l0.5-0.5l1-0.5l1-0.5h1h1h1h1h0.5H70h0.5h0.5h1l1,0.5l1,0.5
			c0.5,0,0.5,0.5,1,0.5c0.5,0,0.5,0.5,1,0.5c0,0,0.5,0.5,1,0.5l1.4,1c0.5,0,0.5,0.5,1,0.5l1,0.5h0.5H81h0.5h0.5c0.5,0,0.5,0,1,0
			c0.5,0,0.5,0,1,0s1,0,1,0c0.5,0,1,0,1.4,0h0.5h0.5h0.5h0.5h0.5h0.5h0.5h0.5v-0.5v-0.5v-0.5v-0.5v-0.5v-0.5v-0.5v-0.5
			c0-0.5,0-1,0-1.4c0-0.5,0-1,0-1v-1c0-0.5,0-0.5,0-1v-0.5v-0.5v-0.5v-0.5l-0.5-1c0-0.5-0.5-0.5-0.5-1l-1-1.4c0,0-0.5-0.5-0.5-1
			s-0.5-0.5-0.5-1s-0.5-0.5-0.5-1l-0.5,1l-0.5-1v-1V445v-0.5V444v-0.5v-1v-1v-1v-1l0.5-1l0.5-1l0.5-1l0.5-0.5l0.5-0.5l0.5-0.5
			l0.5-0.5l0,0l0,0h0.5h0.5h0.5H91h0.5H91L91.5,433L91.5,433L91.5,433z"/>
	</g>
</g>
</svg>
